<svg xmlns="http://www.w3.org/2000/svg" xmlns:xlink="http://www.w3.org/1999/xlink" xmlns:lucid="lucid" width="1703.95" height="1285.5"><g transform="translate(-39.499999993600845 -40)" lucid:page-tab-id="u7kj7BmuT8tI"><path d="M0 0h1760v1360H0z" fill="#fff"/><path d="M80 116a16 16 0 0 1 16-16h208a16 16 0 0 1 16 16v148a16 16 0 0 1-16 16H96a16 16 0 0 1-16-16z" stroke="#4c535d" stroke-width="2" fill="#fff"/><path d="M136 173.6c0 6.63-5.37 12-12 12s-12-5.37-12-12 5.37-12 12-12 12 5.37 12 12z" stroke="#000" stroke-opacity=".25" fill="#a9afb8"/><path d="M136 205.6c0 6.63-5.37 12-12 12s-12-5.37-12-12 5.37-12 12-12 12 5.37 12 12z" stroke="#000" stroke-opacity=".25" fill="#cfe4ff"/><use xlink:href="#a" transform="matrix(1,0,0,1,112,124) translate(33.074999999999996 14.4)"/><use xlink:href="#b" transform="matrix(1,0,0,1,112,124) translate(109.975 14.4)"/><use xlink:href="#c" transform="matrix(1,0,0,1,148,161.6) translate(0 14.8)"/><use xlink:href="#d" transform="matrix(1,0,0,1,148,161.6) translate(52.81111111111111 14.8)"/><use xlink:href="#e" transform="matrix(1,0,0,1,148,193.6) translate(0 14.8)"/><use xlink:href="#d" transform="matrix(1,0,0,1,148,193.6) translate(63.73888888888889 14.8)"/><path d="M600 751.4a5 5 0 0 1 5-5h400a5 5 0 0 1 5 5v211a5 5 0 0 1-5 5H605a5 5 0 0 1-5-5z" fill="#fff"/><path d="M600 786.4v-35a5 5 0 0 1 5-5h400a5 5 0 0 1 5 5v35" fill="#edf5ff"/><path d="M600 751.4a5 5 0 0 1 5-5h400a5 5 0 0 1 5 5v211a5 5 0 0 1-5 5H605a5 5 0 0 1-5-5zM600 786.4h410M660 786.4v181M799.78 786.4v181" stroke="#282c33" fill="none"/><use xlink:href="#f" transform="matrix(1,0,0,1,610,746.3881134931934) translate(0 23.6)"/><use xlink:href="#g" transform="matrix(1,0,0,1,605,788.8881134931934) translate(0 27.6)"/><use xlink:href="#h" transform="matrix(1,0,0,1,665,788.8881134931934) translate(0 27.6)"/><use xlink:href="#i" transform="matrix(1,0,0,1,804.7833119660368,788.8881134931934) translate(0 16.799999999999997)"/><use xlink:href="#j" transform="matrix(1,0,0,1,804.7833119660368,788.8881134931934) translate(33.900000000000006 16.799999999999997)"/><use xlink:href="#k" transform="matrix(1,0,0,1,804.7833119660368,788.8881134931934) translate(76.80000000000001 16.799999999999997)"/><use xlink:href="#l" transform="matrix(1,0,0,1,804.7833119660368,788.8881134931934) translate(0 38.4)"/><use xlink:href="#m" transform="matrix(1,0,0,1,605,841.8881134931934) translate(0 17.1)"/><use xlink:href="#n" transform="matrix(1,0,0,1,665,841.8881134931934) translate(0 17.1)"/><use xlink:href="#o" transform="matrix(1,0,0,1,804.7833119660368,841.8881134931934) translate(0 17.1)"/><use xlink:href="#p" transform="matrix(1,0,0,1,665,873.8881134931934) translate(0 17.1)"/><use xlink:href="#q" transform="matrix(1,0,0,1,804.7833119660368,873.8881134931934) translate(0 17.1)"/><use xlink:href="#r" transform="matrix(1,0,0,1,804.7833119660368,873.8881134931934) translate(96.80000000000001 17.1)"/><use xlink:href="#s" transform="matrix(1,0,0,1,804.7833119660368,873.8881134931934) translate(126.80000000000001 17.1)"/><use xlink:href="#t" transform="matrix(1,0,0,1,665,905.8881134931934) translate(0 17.1)"/><use xlink:href="#q" transform="matrix(1,0,0,1,804.7833119660368,905.8881134931934) translate(0 17.1)"/><use xlink:href="#r" transform="matrix(1,0,0,1,804.7833119660368,905.8881134931934) translate(96.80000000000001 17.1)"/><use xlink:href="#s" transform="matrix(1,0,0,1,804.7833119660368,905.8881134931934) translate(126.80000000000001 17.1)"/><use xlink:href="#m" transform="matrix(1,0,0,1,605,937.8881134931934) translate(0 17.1)"/><use xlink:href="#u" transform="matrix(1,0,0,1,665,937.8881134931934) translate(0 17.1)"/><use xlink:href="#o" transform="matrix(1,0,0,1,804.7833119660368,937.8881134931934) translate(0 17.1)"/><path d="M40 525a5 5 0 0 1 5-5h382.6a5 5 0 0 1 5 5v307a5 5 0 0 1-5 5H45a5 5 0 0 1-5-5z" fill="#fff"/><path d="M40 560v-35a5 5 0 0 1 5-5h382.6a5 5 0 0 1 5 5v35" fill="#edf5ff"/><path d="M40 525a5 5 0 0 1 5-5h382.6a5 5 0 0 1 5 5v307a5 5 0 0 1-5 5H45a5 5 0 0 1-5-5zM40 560h392.6M100 560v277M233.1 560v277" stroke="#282c33" fill="none"/><use xlink:href="#v" transform="matrix(1,0,0,1,50,520) translate(0 23.6)"/><use xlink:href="#g" transform="matrix(1,0,0,1,45,562.5) translate(0 27.6)"/><use xlink:href="#h" transform="matrix(1,0,0,1,105,562.5) translate(0 27.6)"/><use xlink:href="#i" transform="matrix(1,0,0,1,238.11067710149268,562.5) translate(0 16.799999999999997)"/><use xlink:href="#j" transform="matrix(1,0,0,1,238.11067710149268,562.5) translate(33.900000000000006 16.799999999999997)"/><use xlink:href="#k" transform="matrix(1,0,0,1,238.11067710149268,562.5) translate(76.80000000000001 16.799999999999997)"/><use xlink:href="#l" transform="matrix(1,0,0,1,238.11067710149268,562.5) translate(0 38.4)"/><use xlink:href="#w" transform="matrix(1,0,0,1,105,615.5) translate(0 17.1)"/><use xlink:href="#q" transform="matrix(1,0,0,1,238.11067710149268,615.5) translate(0 17.1)"/><use xlink:href="#r" transform="matrix(1,0,0,1,238.11067710149268,615.5) translate(96.80000000000001 17.1)"/><use xlink:href="#s" transform="matrix(1,0,0,1,238.11067710149268,615.5) translate(126.80000000000001 17.1)"/><use xlink:href="#x" transform="matrix(1,0,0,1,105,647.5) translate(0 17.1)"/><use xlink:href="#q" transform="matrix(1,0,0,1,238.11067710149268,647.5) translate(0 17.1)"/><use xlink:href="#r" transform="matrix(1,0,0,1,238.11067710149268,647.5) translate(96.80000000000001 17.1)"/><use xlink:href="#s" transform="matrix(1,0,0,1,238.11067710149268,647.5) translate(126.80000000000001 17.1)"/><use xlink:href="#y" transform="matrix(1,0,0,1,105,679.5) translate(0 17.1)"/><use xlink:href="#q" transform="matrix(1,0,0,1,238.11067710149268,679.5) translate(0 17.1)"/><use xlink:href="#r" transform="matrix(1,0,0,1,238.11067710149268,679.5) translate(96.80000000000001 17.1)"/><use xlink:href="#s" transform="matrix(1,0,0,1,238.11067710149268,679.5) translate(126.80000000000001 17.1)"/><use xlink:href="#z" transform="matrix(1,0,0,1,105,711.5) translate(0 17.1)"/><use xlink:href="#A" transform="matrix(1,0,0,1,238.11067710149268,711.5) translate(0 17.1)"/><use xlink:href="#r" transform="matrix(1,0,0,1,238.11067710149268,711.5) translate(106.80000000000001 17.1)"/><use xlink:href="#s" transform="matrix(1,0,0,1,238.11067710149268,711.5) translate(136.8 17.1)"/><use xlink:href="#B" transform="matrix(1,0,0,1,105,743.5) translate(0 17.1)"/><use xlink:href="#C" transform="matrix(1,0,0,1,238.11067710149268,743.5) translate(0 17.1)"/><use xlink:href="#r" transform="matrix(1,0,0,1,238.11067710149268,743.5) translate(73.9 17.1)"/><use xlink:href="#s" transform="matrix(1,0,0,1,238.11067710149268,743.5) translate(103.9 17.1)"/><use xlink:href="#D" transform="matrix(1,0,0,1,105,775.5) translate(0 17.1)"/><use xlink:href="#o" transform="matrix(1,0,0,1,238.11067710149268,775.5) translate(0 17.1)"/><use xlink:href="#E" transform="matrix(1,0,0,1,105,807.5) translate(0 17.1)"/><use xlink:href="#F" transform="matrix(1,0,0,1,238.11067710149268,807.5) translate(0 17.1)"/><path d="M453.1 586.5h57.2a6 6 0 0 1 6 6v352.9a6 6 0 0 0 6 6H560" stroke="#3a414a" fill="none"/><path d="M443.1 596.5v-20M433.1 586.5h20M453.1 596.5v-20" stroke="#3a414a" fill="#fff"/><path d="M599.28 961.4l-20-10 20-10" stroke="#3a414a" fill="#fff" fill-opacity="0"/><path d="M599.28 951.4h-20M579.28 951.4c0 5.5-4.48 10-10 10-5.53 0-10-4.5-10-10 0-5.53 4.47-10 10-10 5.52 0 10 4.47 10 10" stroke="#3a414a" fill="#fff"/><path d="M60 865a5 5 0 0 1 5-5h400a5 5 0 0 1 5 5v211a5 5 0 0 1-5 5H65a5 5 0 0 1-5-5z" fill="#fff"/><path d="M60 900v-35a5 5 0 0 1 5-5h400a5 5 0 0 1 5 5v35" fill="#edf5ff"/><path d="M60 865a5 5 0 0 1 5-5h400a5 5 0 0 1 5 5v211a5 5 0 0 1-5 5H65a5 5 0 0 1-5-5zM60 900h410M120 900v181M257.06 900v181" stroke="#282c33" fill="none"/><use xlink:href="#G" transform="matrix(1,0,0,1,70,860) translate(0 23.6)"/><use xlink:href="#g" transform="matrix(1,0,0,1,65,902.5) translate(0 27.6)"/><use xlink:href="#h" transform="matrix(1,0,0,1,125,902.5) translate(0 27.6)"/><use xlink:href="#i" transform="matrix(1,0,0,1,262.0582586148332,902.5) translate(0 16.799999999999997)"/><use xlink:href="#j" transform="matrix(1,0,0,1,262.0582586148332,902.5) translate(33.900000000000006 16.799999999999997)"/><use xlink:href="#k" transform="matrix(1,0,0,1,262.0582586148332,902.5) translate(76.80000000000001 16.799999999999997)"/><use xlink:href="#l" transform="matrix(1,0,0,1,262.0582586148332,902.5) translate(0 38.4)"/><use xlink:href="#H" transform="matrix(1,0,0,1,125,955.5) translate(0 17.1)"/><use xlink:href="#q" transform="matrix(1,0,0,1,262.0582586148332,955.5) translate(0 17.1)"/><use xlink:href="#r" transform="matrix(1,0,0,1,262.0582586148332,955.5) translate(96.80000000000001 17.1)"/><use xlink:href="#s" transform="matrix(1,0,0,1,262.0582586148332,955.5) translate(126.80000000000001 17.1)"/><use xlink:href="#I" transform="matrix(1,0,0,1,125,987.5) translate(0 17.1)"/><use xlink:href="#C" transform="matrix(1,0,0,1,262.0582586148332,987.5) translate(0 17.1)"/><use xlink:href="#r" transform="matrix(1,0,0,1,262.0582586148332,987.5) translate(73.9 17.1)"/><use xlink:href="#s" transform="matrix(1,0,0,1,262.0582586148332,987.5) translate(103.9 17.1)"/><use xlink:href="#J" transform="matrix(1,0,0,1,125,1019.5) translate(0 17.1)"/><use xlink:href="#K" transform="matrix(1,0,0,1,262.0582586148332,1019.5) translate(0 17.1)"/><use xlink:href="#L" transform="matrix(1,0,0,1,125,1051.5) translate(0 17.1)"/><use xlink:href="#M" transform="matrix(1,0,0,1,262.0582586148332,1051.5) translate(0 17.1)"/><path d="M60 1109a5 5 0 0 1 5-5h370a5 5 0 0 1 5 5v211a5 5 0 0 1-5 5H65a5 5 0 0 1-5-5z" fill="#fff"/><path d="M60 1144v-35a5 5 0 0 1 5-5h370a5 5 0 0 1 5 5v35" fill="#edf5ff"/><path d="M60 1109a5 5 0 0 1 5-5h370a5 5 0 0 1 5 5v211a5 5 0 0 1-5 5H65a5 5 0 0 1-5-5zM60 1144h380M120 1144v181M248.56 1144v181" stroke="#282c33" fill="none"/><use xlink:href="#N" transform="matrix(1,0,0,1,70,1104) translate(0 23.6)"/><use xlink:href="#g" transform="matrix(1,0,0,1,65,1146.5) translate(0 27.6)"/><use xlink:href="#h" transform="matrix(1,0,0,1,125,1146.5) translate(0 27.6)"/><use xlink:href="#i" transform="matrix(1,0,0,1,253.56291918549516,1146.5) translate(0 16.799999999999997)"/><use xlink:href="#j" transform="matrix(1,0,0,1,253.56291918549516,1146.5) translate(33.900000000000006 16.799999999999997)"/><use xlink:href="#k" transform="matrix(1,0,0,1,253.56291918549516,1146.5) translate(76.80000000000001 16.799999999999997)"/><use xlink:href="#l" transform="matrix(1,0,0,1,253.56291918549516,1146.5) translate(0 38.4)"/><use xlink:href="#H" transform="matrix(1,0,0,1,125,1199.5) translate(0 17.1)"/><use xlink:href="#q" transform="matrix(1,0,0,1,253.56291918549516,1199.5) translate(0 17.1)"/><use xlink:href="#r" transform="matrix(1,0,0,1,253.56291918549516,1199.5) translate(96.80000000000001 17.1)"/><use xlink:href="#s" transform="matrix(1,0,0,1,253.56291918549516,1199.5) translate(126.80000000000001 17.1)"/><use xlink:href="#O" transform="matrix(1,0,0,1,125,1231.5) translate(0 17.1)"/><use xlink:href="#q" transform="matrix(1,0,0,1,253.56291918549516,1231.5) translate(0 17.1)"/><use xlink:href="#r" transform="matrix(1,0,0,1,253.56291918549516,1231.5) translate(96.80000000000001 17.1)"/><use xlink:href="#s" transform="matrix(1,0,0,1,253.56291918549516,1231.5) translate(126.80000000000001 17.1)"/><use xlink:href="#P" transform="matrix(1,0,0,1,125,1263.5) translate(0 17.1)"/><use xlink:href="#Q" transform="matrix(1,0,0,1,253.56291918549516,1263.5) translate(0 17.1)"/><use xlink:href="#R" transform="matrix(1,0,0,1,125,1295.5) translate(0 17.1)"/><use xlink:href="#S" transform="matrix(1,0,0,1,253.56291918549516,1295.5) translate(0 17.1)"/><use xlink:href="#T" transform="matrix(1,0,0,1,253.56291918549516,1295.5) translate(68.95 17.1)"/><use xlink:href="#U" transform="matrix(1,0,0,1,253.56291918549516,1295.5) translate(127.9 17.1)"/><path d="M1340 877.18a5 5 0 0 1 5-5h370a5 5 0 0 1 5 5v179a5 5 0 0 1-5 5h-370a5 5 0 0 1-5-5z" fill="#fff"/><path d="M1340 912.18v-35a5 5 0 0 1 5-5h370a5 5 0 0 1 5 5v35" fill="#edf5ff"/><path d="M1340 877.18a5 5 0 0 1 5-5h370a5 5 0 0 1 5 5v179a5 5 0 0 1-5 5h-370a5 5 0 0 1-5-5zM1340 912.18h380M1400 912.18v149M1515.84 912.18v149" stroke="#282c33" fill="none"/><use xlink:href="#V" transform="matrix(1,0,0,1,1350,872.1844248823227) translate(0 23.6)"/><use xlink:href="#g" transform="matrix(1,0,0,1,1345,914.6844248823227) translate(0 27.6)"/><use xlink:href="#h" transform="matrix(1,0,0,1,1405,914.6844248823227) translate(0 27.6)"/><use xlink:href="#i" transform="matrix(1,0,0,1,1520.8422018986282,914.6844248823227) translate(0 16.799999999999997)"/><use xlink:href="#j" transform="matrix(1,0,0,1,1520.8422018986282,914.6844248823227) translate(33.900000000000006 16.799999999999997)"/><use xlink:href="#k" transform="matrix(1,0,0,1,1520.8422018986282,914.6844248823227) translate(76.80000000000001 16.799999999999997)"/><use xlink:href="#l" transform="matrix(1,0,0,1,1520.8422018986282,914.6844248823227) translate(0 38.4)"/><use xlink:href="#w" transform="matrix(1,0,0,1,1405,967.6844248823227) translate(0 17.1)"/><use xlink:href="#q" transform="matrix(1,0,0,1,1520.8422018986282,967.6844248823227) translate(0 17.1)"/><use xlink:href="#r" transform="matrix(1,0,0,1,1520.8422018986282,967.6844248823227) translate(96.80000000000001 17.1)"/><use xlink:href="#s" transform="matrix(1,0,0,1,1520.8422018986282,967.6844248823227) translate(126.80000000000001 17.1)"/><use xlink:href="#x" transform="matrix(1,0,0,1,1405,999.6844248823227) translate(0 17.1)"/><use xlink:href="#q" transform="matrix(1,0,0,1,1520.8422018986282,999.6844248823227) translate(0 17.1)"/><use xlink:href="#r" transform="matrix(1,0,0,1,1520.8422018986282,999.6844248823227) translate(96.80000000000001 17.1)"/><use xlink:href="#s" transform="matrix(1,0,0,1,1520.8422018986282,999.6844248823227) translate(126.80000000000001 17.1)"/><use xlink:href="#R" transform="matrix(1,0,0,1,1405,1031.6844248823227) translate(0 17.1)"/><use xlink:href="#S" transform="matrix(1,0,0,1,1520.8422018986282,1031.6844248823227) translate(0 17.1)"/><use xlink:href="#T" transform="matrix(1,0,0,1,1520.8422018986282,1031.6844248823227) translate(68.95 17.1)"/><use xlink:href="#U" transform="matrix(1,0,0,1,1520.8422018986282,1031.6844248823227) translate(127.9 17.1)"/><path d="M1360 705a5 5 0 0 1 5-5h350a5 5 0 0 1 5 5v94a5 5 0 0 1-5 5h-350a5 5 0 0 1-5-5z" fill="#fff"/><path d="M1360 740v-35a5 5 0 0 1 5-5h350a5 5 0 0 1 5 5v35" fill="#edf5ff"/><path d="M1360 705a5 5 0 0 1 5-5h350a5 5 0 0 1 5 5v94a5 5 0 0 1-5 5h-350a5 5 0 0 1-5-5zM1360 740h360M1420 740v64M1549.57 740v64" stroke="#282c33" fill="none"/><use xlink:href="#W" transform="matrix(1,0,0,1,1369.9999999999998,700) translate(0 23.6)"/><use xlink:href="#X" transform="matrix(1,0,0,1,1364.9999999999998,742.5) translate(0 17.1)"/><use xlink:href="#n" transform="matrix(1,0,0,1,1424.9999999999998,742.5) translate(0 17.1)"/><use xlink:href="#Y" transform="matrix(1,0,0,1,1554.5651140417733,742.5) translate(0 17.1)"/><use xlink:href="#X" transform="matrix(1,0,0,1,1364.9999999999998,774.5) translate(0 17.1)"/><use xlink:href="#Z" transform="matrix(1,0,0,1,1424.9999999999998,774.5) translate(0 17.1)"/><use xlink:href="#Y" transform="matrix(1,0,0,1,1554.5651140417733,774.5) translate(0 17.1)"/><path d="M1319.5 938.68h-14a6 6 0 0 1-6-6V794.1a6 6 0 0 1 6-6h14.5" stroke="#3a414a" fill="none"/><path d="M1319.5 928.68v20M1339.5 938.68h-20" stroke="#3a414a" fill="#fff"/><path d="M1359.28 798.1l-20-10 20-10" stroke="#3a414a" fill="#fff" fill-opacity="0"/><path d="M1359.28 788.1h-20M1339.28 788.1c0 5.52-4.48 10-10 10-5.53 0-10-4.48-10-10s4.47-10 10-10c5.52 0 10 4.48 10 10" stroke="#3a414a" fill="#fff"/><path d="M920 545a5 5 0 0 1 5-5h350a5 5 0 0 1 5 5v147a5 5 0 0 1-5 5H925a5 5 0 0 1-5-5z" fill="#fff"/><path d="M920 580v-35a5 5 0 0 1 5-5h350a5 5 0 0 1 5 5v35" fill="#edf5ff"/><path d="M920 545a5 5 0 0 1 5-5h350a5 5 0 0 1 5 5v147a5 5 0 0 1-5 5H925a5 5 0 0 1-5-5zM920 580h360M980 580v117M1113.6 580v117" stroke="#282c33" fill="none"/><use xlink:href="#aa" transform="matrix(1,0,0,1,930,540) translate(0 23.6)"/><use xlink:href="#ab" transform="matrix(1,0,0,1,925,582.5) translate(0 27.6)"/><use xlink:href="#ac" transform="matrix(1,0,0,1,985,582.5) translate(0 27.6)"/><use xlink:href="#i" transform="matrix(1,0,0,1,1118.5999999999988,582.5) translate(0 16.799999999999997)"/><use xlink:href="#j" transform="matrix(1,0,0,1,1118.5999999999988,582.5) translate(33.900000000000006 16.799999999999997)"/><use xlink:href="#k" transform="matrix(1,0,0,1,1118.5999999999988,582.5) translate(76.80000000000001 16.799999999999997)"/><use xlink:href="#l" transform="matrix(1,0,0,1,1118.5999999999988,582.5) translate(0 38.4)"/><use xlink:href="#ad" transform="matrix(1,0,0,1,985,635.5) translate(0 17.1)"/><use xlink:href="#q" transform="matrix(1,0,0,1,1118.5999999999988,635.5) translate(0 17.1)"/><use xlink:href="#r" transform="matrix(1,0,0,1,1118.5999999999988,635.5) translate(96.80000000000001 17.1)"/><use xlink:href="#s" transform="matrix(1,0,0,1,1118.5999999999988,635.5) translate(126.80000000000001 17.1)"/><use xlink:href="#ae" transform="matrix(1,0,0,1,985,667.5) translate(0 17.1)"/><use xlink:href="#C" transform="matrix(1,0,0,1,1118.5999999999988,667.5) translate(0 17.1)"/><use xlink:href="#r" transform="matrix(1,0,0,1,1118.5999999999988,667.5) translate(73.9 17.1)"/><use xlink:href="#s" transform="matrix(1,0,0,1,1118.5999999999988,667.5) translate(103.9 17.1)"/><path d="M430.2 165a5 5 0 0 1 5-5H895a5 5 0 0 1 5 5v190a5 5 0 0 1-5 5H435.2a5 5 0 0 1-5-5z" fill="#fff"/><path d="M430.2 200v-35a5 5 0 0 1 5-5H895a5 5 0 0 1 5 5v35" fill="#edf5ff"/><path d="M430.2 165a5 5 0 0 1 5-5H895a5 5 0 0 1 5 5v190a5 5 0 0 1-5 5H435.2a5 5 0 0 1-5-5zM430.2 200H900M490.2 200v160M591.87 200v160" stroke="#282c33" fill="none"/><use xlink:href="#af" transform="matrix(1,0,0,1,440.1985221586144,160) translate(0 23.6)"/><use xlink:href="#ab" transform="matrix(1,0,0,1,435.1985221586144,202.5) translate(0 17.1)"/><use xlink:href="#ac" transform="matrix(1,0,0,1,495.1985221586144,202.5) translate(0 17.1)"/><use xlink:href="#i" transform="matrix(1,0,0,1,596.8715147318377,202.5) translate(0 17.1)"/><use xlink:href="#j" transform="matrix(1,0,0,1,596.8715147318377,202.5) translate(33.900000000000006 17.1)"/><use xlink:href="#ag" transform="matrix(1,0,0,1,596.8715147318377,202.5) translate(76.80000000000001 17.1)"/><use xlink:href="#l" transform="matrix(1,0,0,1,596.8715147318377,202.5) translate(127.35000000000002 17.1)"/><use xlink:href="#ah" transform="matrix(1,0,0,1,495.1985221586144,234.5) translate(0 17.1)"/><use xlink:href="#q" transform="matrix(1,0,0,1,596.8715147318377,234.5) translate(0 17.1)"/><use xlink:href="#r" transform="matrix(1,0,0,1,596.8715147318377,234.5) translate(96.80000000000001 17.1)"/><use xlink:href="#s" transform="matrix(1,0,0,1,596.8715147318377,234.5) translate(126.80000000000001 17.1)"/><use xlink:href="#ai" transform="matrix(1,0,0,1,495.1985221586144,266.5) translate(0 17.1)"/><use xlink:href="#C" transform="matrix(1,0,0,1,596.8715147318377,266.5) translate(0 17.1)"/><use xlink:href="#r" transform="matrix(1,0,0,1,596.8715147318377,266.5) translate(73.9 17.1)"/><use xlink:href="#s" transform="matrix(1,0,0,1,596.8715147318377,266.5) translate(103.9 17.1)"/><use xlink:href="#aj" transform="matrix(1,0,0,1,495.1985221586144,298.5) translate(0 17.1)"/><use xlink:href="#ak" transform="matrix(1,0,0,1,596.8715147318377,298.5) translate(0 17.1)"/><use xlink:href="#al" transform="matrix(1,0,0,1,495.1985221586144,330.5) translate(0 17.1)"/><use xlink:href="#am" transform="matrix(1,0,0,1,596.8715147318377,330.5) translate(0 17.1)"/><path d="M1337.05 365a5 5 0 0 1 5-5h395.9a5 5 0 0 1 5 5v211a5 5 0 0 1-5 5h-395.9a5 5 0 0 1-5-5z" fill="#fff"/><path d="M1337.05 400v-35a5 5 0 0 1 5-5h395.9a5 5 0 0 1 5 5v35" fill="#edf5ff"/><path d="M1337.05 365a5 5 0 0 1 5-5h395.9a5 5 0 0 1 5 5v211a5 5 0 0 1-5 5h-395.9a5 5 0 0 1-5-5zM1337.05 400h405.9M1397.05 400v181M1530 400v181" stroke="#282c33" fill="none"/><use xlink:href="#an" transform="matrix(1,0,0,1,1347.0519693732708,360) translate(0 23.6)"/><use xlink:href="#ab" transform="matrix(1,0,0,1,1342.0519693732708,402.5) translate(0 27.6)"/><use xlink:href="#ac" transform="matrix(1,0,0,1,1402.0519693732708,402.5) translate(0 27.6)"/><use xlink:href="#i" transform="matrix(1,0,0,1,1535.006289241562,402.5) translate(0 16.799999999999997)"/><use xlink:href="#j" transform="matrix(1,0,0,1,1535.006289241562,402.5) translate(33.900000000000006 16.799999999999997)"/><use xlink:href="#k" transform="matrix(1,0,0,1,1535.006289241562,402.5) translate(76.80000000000001 16.799999999999997)"/><use xlink:href="#l" transform="matrix(1,0,0,1,1535.006289241562,402.5) translate(0 38.4)"/><g><use xlink:href="#ah" transform="matrix(1,0,0,1,1402.0519693732708,455.5) translate(0 17.1)"/></g><g><use xlink:href="#q" transform="matrix(1,0,0,1,1535.006289241562,455.5) translate(0 17.1)"/><use xlink:href="#r" transform="matrix(1,0,0,1,1535.006289241562,455.5) translate(96.80000000000001 17.1)"/><use xlink:href="#s" transform="matrix(1,0,0,1,1535.006289241562,455.5) translate(126.80000000000001 17.1)"/></g><g><use xlink:href="#ao" transform="matrix(1,0,0,1,1402.0519693732708,487.5) translate(0 17.1)"/></g><g><use xlink:href="#C" transform="matrix(1,0,0,1,1535.006289241562,487.5) translate(0 17.1)"/><use xlink:href="#r" transform="matrix(1,0,0,1,1535.006289241562,487.5) translate(73.9 17.1)"/><use xlink:href="#s" transform="matrix(1,0,0,1,1535.006289241562,487.5) translate(103.9 17.1)"/></g><g><use xlink:href="#aj" transform="matrix(1,0,0,1,1402.0519693732708,519.5) translate(0 17.1)"/></g><g><use xlink:href="#ak" transform="matrix(1,0,0,1,1535.006289241562,519.5) translate(0 17.1)"/></g><g><use xlink:href="#al" transform="matrix(1,0,0,1,1402.0519693732708,551.5) translate(0 17.1)"/></g><g><use xlink:href="#am" transform="matrix(1,0,0,1,1535.006289241562,551.5) translate(0 17.1)"/></g><path d="M899.5 606.5h-334a6 6 0 0 0-6 6v236.9a6 6 0 0 0 6 6h14.6" stroke="#3a414a" fill="none"/><path d="M899.5 596.5v20M919.5 606.5h-20" stroke="#3a414a" fill="#fff"/><path d="M599.28 865.4l-20-10 20-10" stroke="#3a414a" fill="#fff" fill-opacity="0"/><path d="M599.28 855.4h-20" stroke="#3a414a" fill="#fff"/><path d="M1299.9 606.5h14.1a6 6 0 0 1 6 6v137.47a6 6 0 0 0 6 6h14.1" stroke="#3a414a" fill="none"/><path d="M1280.72 596.5l20 10-20 10" stroke="#3a414a" fill="#fff" fill-opacity="0"/><path d="M1280.72 606.5h20" stroke="#3a414a" fill="#fff"/><path d="M1359.28 765.97l-20-10 20-10" stroke="#3a414a" fill="#fff" fill-opacity="0"/><path d="M1359.28 755.97h-20" stroke="#3a414a" fill="#fff"/><path d="M920 365a5 5 0 0 1 5-5h350a5 5 0 0 1 5 5v94a5 5 0 0 1-5 5H925a5 5 0 0 1-5-5z" fill="#fff"/><path d="M920 400v-35a5 5 0 0 1 5-5h350a5 5 0 0 1 5 5v35" fill="#edf5ff"/><path d="M920 365a5 5 0 0 1 5-5h350a5 5 0 0 1 5 5v94a5 5 0 0 1-5 5H925a5 5 0 0 1-5-5zM920 400h360M980 400v64M1113.6 400v64" stroke="#282c33" fill="none"/><g><use xlink:href="#ap" transform="matrix(1,0,0,1,930,360) translate(0 23.6)"/></g><g><use xlink:href="#aq" transform="matrix(1,0,0,1,925,402.5) translate(0 17.1)"/></g><g><use xlink:href="#n" transform="matrix(1,0,0,1,985,402.5) translate(0 17.1)"/></g><g><use xlink:href="#o" transform="matrix(1,0,0,1,1118.5999999999988,402.5) translate(0 17.1)"/></g><g><use xlink:href="#aq" transform="matrix(1,0,0,1,925,434.5) translate(0 17.1)"/></g><g><use xlink:href="#ar" transform="matrix(1,0,0,1,985,434.5) translate(0 17.1)"/></g><g><use xlink:href="#o" transform="matrix(1,0,0,1,1118.5999999999988,434.5) translate(0 17.1)"/></g><path d="M453.15 392.2a5 5 0 0 1 5-5h350a5 5 0 0 1 5 5v94a5 5 0 0 1-5 5h-350a5 5 0 0 1-5-5z" fill="#fff"/><path d="M453.15 427.2v-35a5 5 0 0 1 5-5h350a5 5 0 0 1 5 5v35" fill="#edf5ff"/><path d="M453.15 392.2a5 5 0 0 1 5-5h350a5 5 0 0 1 5 5v94a5 5 0 0 1-5 5h-350a5 5 0 0 1-5-5zM453.15 427.2h360M513.15 427.2v64M629.4 427.2v64" stroke="#282c33" fill="none"/><g><use xlink:href="#as" transform="matrix(1,0,0,1,463.1465527853434,387.1940567465967) translate(0 23.6)"/></g><g><use xlink:href="#aq" transform="matrix(1,0,0,1,458.1465527853434,429.6940567465967) translate(0 17.1)"/></g><g><use xlink:href="#n" transform="matrix(1,0,0,1,518.1465527853434,429.6940567465967) translate(0 17.1)"/></g><g><use xlink:href="#o" transform="matrix(1,0,0,1,634.4078033735568,429.6940567465967) translate(0 17.1)"/></g><g><use xlink:href="#aq" transform="matrix(1,0,0,1,458.1465527853434,461.6940567465967) translate(0 17.1)"/></g><g><use xlink:href="#at" transform="matrix(1,0,0,1,518.1465527853434,461.6940567465967) translate(0 17.1)"/></g><g><use xlink:href="#o" transform="matrix(1,0,0,1,634.4078033735568,461.6940567465967) translate(0 17.1)"/></g><path d="M899.5 606.5h-14a6 6 0 0 1-6-6V422a6 6 0 0 1 6-6h14.6" stroke="#3a414a" fill="none"/><path d="M899.5 596.5v20M919.5 606.5h-20" stroke="#3a414a" fill="#fff"/><path d="M919.28 426l-20-10 20-10" stroke="#3a414a" fill="#fff" fill-opacity="0"/><path d="M919.28 416h-20" stroke="#3a414a" fill="#fff"/><path d="M1316.55 426.5h-2.02a6 6 0 0 0-6 6v9.6a6 6 0 0 1-6 6h-2.62" stroke="#3a414a" fill="none"/><path d="M1316.55 416.5v20M1336.55 426.5h-20" stroke="#3a414a" fill="#fff"/><path d="M1280.72 438.1l20 10-20 10" stroke="#3a414a" fill="#fff" fill-opacity="0"/><path d="M1280.72 448.1h20" stroke="#3a414a" fill="#fff"/><path d="M899.5 606.5h-26.93a6 6 0 0 1-6-6V449.2a6 6 0 0 0-6-6h-27.5" stroke="#3a414a" fill="none"/><path d="M899.5 596.5v20M919.5 606.5h-20" stroke="#3a414a" fill="#fff"/><path d="M813.87 433.2l20 10-20 10" stroke="#3a414a" fill="#fff" fill-opacity="0"/><path d="M813.87 443.2h20" stroke="#3a414a" fill="#fff"/><path d="M409.7 216h-14a6 6 0 0 0-6 6v247.3a6 6 0 0 0 6 6h37.54" stroke="#3a414a" fill="none"/><path d="M409.7 206v20M429.7 216h-20" stroke="#3a414a" fill="#fff"/><path d="M452.42 485.3l-20-10 20-10" stroke="#3a414a" fill="#fff" fill-opacity="0"/><path d="M452.42 475.3h-20" stroke="#3a414a" fill="#fff"/><defs><path d="M24-248c120-7 223 5 221 122C244-46 201 0 124 0H24v-248zM76-40c74 7 117-18 117-86 0-67-45-88-117-82v168" id="au"/><path d="M25-224v-37h50v37H25zM25 0v-190h50V0H25" id="av"/><path d="M133-34C117-15 103 5 69 4 32 3 11-16 11-54c-1-60 55-63 116-61 1-26-3-47-28-47-18 1-26 9-28 27l-52-2c7-38 36-58 82-57s74 22 75 68l1 82c-1 14 12 18 25 15v27c-30 8-71 5-69-32zm-48 3c29 0 43-24 42-57-32 0-66-3-65 30 0 17 8 27 23 27" id="aw"/><path d="M195-6C206 82 75 100 31 46c-4-6-6-13-8-21l49-6c3 16 16 24 34 25 40 0 42-37 40-79-11 22-30 35-61 35-53 0-70-43-70-97 0-56 18-96 73-97 30 0 46 14 59 34l2-30h47zm-90-29c32 0 41-27 41-63 0-35-9-62-40-62-32 0-39 29-40 63 0 36 9 62 39 62" id="ax"/><path d="M135-150c-39-12-60 13-60 57V0H25l-1-190h47c2 13-1 29 3 40 6-28 27-53 61-41v41" id="ay"/><path d="M220-157c-53 9-28 100-34 157h-49v-107c1-27-5-49-29-50C55-147 81-57 75 0H25l-1-190h47c2 12-1 28 3 38 10-53 101-56 108 0 13-22 24-43 59-42 82 1 51 116 57 194h-49v-107c-1-25-5-48-29-50" id="az"/><g id="a"><use transform="matrix(0.05,0,0,0.05,0,0)" xlink:href="#au"/><use transform="matrix(0.05,0,0,0.05,12.950000000000001,0)" xlink:href="#av"/><use transform="matrix(0.05,0,0,0.05,17.950000000000003,0)" xlink:href="#aw"/><use transform="matrix(0.05,0,0,0.05,27.950000000000003,0)" xlink:href="#ax"/><use transform="matrix(0.05,0,0,0.05,38.900000000000006,0)" xlink:href="#ay"/><use transform="matrix(0.05,0,0,0.05,45.900000000000006,0)" xlink:href="#aw"/><use transform="matrix(0.05,0,0,0.05,55.900000000000006,0)" xlink:href="#az"/></g><path d="M195 0l-88-114-31 24V0H24v-248h52v113l112-113h60L142-143 257 0h-62" id="aA"/><path d="M185-48c-13 30-37 53-82 52C43 2 14-33 14-96s30-98 90-98c62 0 83 45 84 108H66c0 31 8 55 39 56 18 0 30-7 34-22zm-45-69c5-46-57-63-70-21-2 6-4 13-4 21h74" id="aB"/><path d="M123 10C108 53 80 86 19 72V37c35 8 53-11 59-39L3-190h52l48 148c12-52 28-100 44-148h51" id="aC"/><g id="b"><use transform="matrix(0.05,0,0,0.05,0,0)" xlink:href="#aA"/><use transform="matrix(0.05,0,0,0.05,12.950000000000001,0)" xlink:href="#aB"/><use transform="matrix(0.05,0,0,0.05,22.950000000000003,0)" xlink:href="#aC"/></g><path d="M30 0v-248h187v28H63v79h144v27H63v87h162V0H30" id="aD"/><path d="M141 0L90-78 38 0H4l68-98-65-92h35l48 74 47-74h35l-64 92 68 98h-35" id="aE"/><path d="M24-231v-30h32v30H24zM24 0v-190h32V0H24" id="aF"/><path d="M135-143c-3-34-86-38-87 0 15 53 115 12 119 90S17 21 10-45l28-5c4 36 97 45 98 0-10-56-113-15-118-90-4-57 82-63 122-42 12 7 21 19 24 35" id="aG"/><path d="M59-47c-2 24 18 29 38 22v24C64 9 27 4 27-40v-127H5v-23h24l9-43h21v43h35v23H59v120" id="aH"/><path d="M117-194c89-4 53 116 60 194h-32v-121c0-31-8-49-39-48C34-167 62-67 57 0H25l-1-190h30c1 10-1 24 2 32 11-22 29-35 61-36" id="aI"/><path d="M177-190C167-65 218 103 67 71c-23-6-38-20-44-43l32-5c15 47 100 32 89-28v-30C133-14 115 1 83 1 29 1 15-40 15-95c0-56 16-97 71-98 29-1 48 16 59 35 1-10 0-23 2-32h30zM94-22c36 0 50-32 50-73 0-42-14-75-50-75-39 0-46 34-46 75s6 73 46 73" id="aJ"/><g id="c"><use transform="matrix(0.03888888888888889,0,0,0.03888888888888889,0,0)" xlink:href="#aD"/><use transform="matrix(0.03888888888888889,0,0,0.03888888888888889,9.333333333333334,0)" xlink:href="#aE"/><use transform="matrix(0.03888888888888889,0,0,0.03888888888888889,16.333333333333336,0)" xlink:href="#aF"/><use transform="matrix(0.03888888888888889,0,0,0.03888888888888889,19.40555555555556,0)" xlink:href="#aG"/><use transform="matrix(0.03888888888888889,0,0,0.03888888888888889,26.405555555555562,0)" xlink:href="#aH"/><use transform="matrix(0.03888888888888889,0,0,0.03888888888888889,30.294444444444448,0)" xlink:href="#aF"/><use transform="matrix(0.03888888888888889,0,0,0.03888888888888889,33.36666666666667,0)" xlink:href="#aI"/><use transform="matrix(0.03888888888888889,0,0,0.03888888888888889,41.144444444444446,0)" xlink:href="#aJ"/></g><path d="M141-36C126-15 110 5 73 4 37 3 15-17 15-53c-1-64 63-63 125-63 3-35-9-54-41-54-24 1-41 7-42 31l-33-3c5-37 33-52 76-52 45 0 72 20 72 64v82c-1 20 7 32 28 27v20c-31 9-61-2-59-35zM48-53c0 20 12 33 32 33 41-3 63-29 60-74-43 2-92-5-92 41" id="aK"/><path d="M115-194c53 0 69 39 70 98 0 66-23 100-70 100C84 3 66-7 56-30L54 0H23l1-261h32v101c10-23 28-34 59-34zm-8 174c40 0 45-34 45-75 0-40-5-75-45-74-42 0-51 32-51 76 0 43 10 73 51 73" id="aL"/><path d="M24 0v-261h32V0H24" id="aM"/><path d="M100-194c63 0 86 42 84 106H49c0 40 14 67 53 68 26 1 43-12 49-29l28 8c-11 28-37 45-77 45C44 4 14-33 15-96c1-61 26-98 85-98zm52 81c6-60-76-77-97-28-3 7-6 17-6 28h103" id="aN"/><g id="d"><use transform="matrix(0.03888888888888889,0,0,0.03888888888888889,0,0)" xlink:href="#aH"/><use transform="matrix(0.03888888888888889,0,0,0.03888888888888889,3.888888888888889,0)" xlink:href="#aK"/><use transform="matrix(0.03888888888888889,0,0,0.03888888888888889,11.666666666666666,0)" xlink:href="#aL"/><use transform="matrix(0.03888888888888889,0,0,0.03888888888888889,19.444444444444443,0)" xlink:href="#aM"/><use transform="matrix(0.03888888888888889,0,0,0.03888888888888889,22.516666666666666,0)" xlink:href="#aN"/></g><path d="M30-248c87 1 191-15 191 75 0 78-77 80-158 76V0H30v-248zm33 125c57 0 124 11 124-50 0-59-68-47-124-48v98" id="aO"/><path d="M114-163C36-179 61-72 57 0H25l-1-190h30c1 12-1 29 2 39 6-27 23-49 58-41v29" id="aP"/><path d="M100-194c62-1 85 37 85 99 1 63-27 99-86 99S16-35 15-95c0-66 28-99 85-99zM99-20c44 1 53-31 53-75 0-43-8-75-51-75s-53 32-53 75 10 74 51 75" id="aQ"/><path d="M115-194c55 1 70 41 70 98S169 2 115 4C84 4 66-9 55-30l1 105H24l-1-265h31l2 30c10-21 28-34 59-34zm-8 174c40 0 45-34 45-75s-6-73-45-74c-42 0-51 32-51 76 0 43 10 73 51 73" id="aR"/><path d="M85-194c31 0 48 13 60 33l-1-100h32l1 261h-30c-2-10 0-23-3-31C134-8 116 4 85 4 32 4 16-35 15-94c0-66 23-100 70-100zm9 24c-40 0-46 34-46 75 0 40 6 74 45 74 42 0 51-32 51-76 0-42-9-74-50-73" id="aS"/><g id="e"><use transform="matrix(0.03888888888888889,0,0,0.03888888888888889,0,0)" xlink:href="#aO"/><use transform="matrix(0.03888888888888889,0,0,0.03888888888888889,9.333333333333334,0)" xlink:href="#aP"/><use transform="matrix(0.03888888888888889,0,0,0.03888888888888889,13.961111111111112,0)" xlink:href="#aQ"/><use transform="matrix(0.03888888888888889,0,0,0.03888888888888889,21.73888888888889,0)" xlink:href="#aR"/><use transform="matrix(0.03888888888888889,0,0,0.03888888888888889,29.516666666666666,0)" xlink:href="#aQ"/><use transform="matrix(0.03888888888888889,0,0,0.03888888888888889,37.294444444444444,0)" xlink:href="#aG"/><use transform="matrix(0.03888888888888889,0,0,0.03888888888888889,44.294444444444444,0)" xlink:href="#aN"/><use transform="matrix(0.03888888888888889,0,0,0.03888888888888889,52.07222222222222,0)" xlink:href="#aS"/></g><path fill="#333" d="M125-24c46 0 70-25 89-51l25 16C214-24 183 4 123 4 8 4-5-146 60-208c32-50 158-61 191-5 5 7 9 14 11 22l-32 10c-9-28-33-43-69-43-74 0-108 51-108 125 0 46 24 75 72 75" id="aT"/><path fill="#333" d="M67-158c15-20 31-36 64-36 94 0 33 127 27 194h-32l25-140c3-38-53-32-70-12C52-117 51-51 37 0H6l51-261h31" id="aU"/><path fill="#333" d="M50-231l6-30h32l-6 30H50zM6 0l37-190h31L37 0H6" id="aV"/><path fill="#333" d="M6 0l50-261h32L37 0H6" id="aW"/><path fill="#333" d="M133-28C103 26-5 8 13-77c13-62 24-115 90-117 29-1 46 15 56 35l19-102h32L160 0h-30zM45-64c-2 27 10 43 35 43 54-1 69-50 69-103 0-29-15-46-42-46-53-1-58 58-62 106" id="aX"/><path fill="#333" d="M249-183c0 48-29 72-75 77L221 0h-36l-43-103H65L45 0H11l48-248c83 2 190-17 190 65zm-34 3c0-55-74-39-127-41l-18 92c63-1 145 13 145-51" id="aY"/><path fill="#333" d="M30-147c31-64 166-65 159 27C183-49 158 1 86 4 9 8 1-88 30-147zM88-20c53 0 68-48 68-100 0-31-11-51-44-50-52 1-68 46-68 97 0 32 13 53 44 53" id="aZ"/><path fill="#333" d="M55-144c13 50 104 24 104 88C159 21 15 23 1-39l26-10c6 40 102 42 102-4-13-50-104-23-104-87 0-71 143-71 148-8l-29 4c-5-35-85-37-89 0" id="ba"/><path fill="#333" d="M51-54c-9 22 5 41 31 30L79-1C43 14 10-4 19-52l22-115H19l5-23h22l19-43h21l-9 43h35l-4 23H73" id="bb"/><path fill="#333" d="M111-194c62-3 86 47 72 106H45c-7 38 6 69 45 68 27-1 43-14 53-32l24 11C152-15 129 4 87 4 38 3 12-23 12-71c0-70 32-119 99-123zm44 81c14-66-71-72-95-28-4 8-8 17-11 28h106" id="bc"/><path fill="#333" d="M66-151c12-25 30-51 66-40l-6 26C45-176 58-65 38 0H6l36-190h30" id="bd"/><g id="f"><use transform="matrix(0.05,0,0,0.05,0,0)" xlink:href="#aT"/><use transform="matrix(0.05,0,0,0.05,12.950000000000001,0)" xlink:href="#aU"/><use transform="matrix(0.05,0,0,0.05,22.950000000000003,0)" xlink:href="#aV"/><use transform="matrix(0.05,0,0,0.05,26.900000000000002,0)" xlink:href="#aW"/><use transform="matrix(0.05,0,0,0.05,30.85,0)" xlink:href="#aX"/><use transform="matrix(0.05,0,0,0.05,40.85,0)" xlink:href="#aY"/><use transform="matrix(0.05,0,0,0.05,53.800000000000004,0)" xlink:href="#aZ"/><use transform="matrix(0.05,0,0,0.05,63.800000000000004,0)" xlink:href="#ba"/><use transform="matrix(0.05,0,0,0.05,72.80000000000001,0)" xlink:href="#bb"/><use transform="matrix(0.05,0,0,0.05,77.80000000000001,0)" xlink:href="#bc"/><use transform="matrix(0.05,0,0,0.05,87.80000000000001,0)" xlink:href="#bd"/></g><path fill="#333" d="M238-179c0 84-86 86-175 82L45 0H11l48-248c82 0 179-12 179 69zm-34 1c0-53-64-42-116-43l-19 98c63 0 135 9 135-55" id="be"/><path fill="#333" d="M180 0L97-118 63-96 45 0H11l48-248h34L69-126c44-43 94-81 141-122h43L121-137 219 0h-39" id="bf"/><g id="g"><use transform="matrix(0.05,0,0,0.05,0,0)" xlink:href="#be"/><use transform="matrix(0.05,0,0,0.05,12,0)" xlink:href="#bf"/></g><path fill="#333" d="M14 0l48-248h34L48 0H14" id="bg"/><path fill="#333" d="M248-139C247-14 144 9 11 0l48-248c105-6 190 8 189 109zm-34 0c1-70-52-87-126-82L50-27c98 7 163-21 164-112" id="bh"/><g id="h"><use transform="matrix(0.05,0,0,0.05,0,0)" xlink:href="#bg"/><use transform="matrix(0.05,0,0,0.05,5,0)" xlink:href="#bh"/></g><path fill="#333" d="M173 0L80-213 41 0H11l48-248h37l94 214 40-214h30L212 0h-39" id="bi"/><path fill="#333" d="M151-220L108 0H75l42-220H32l6-28h203l-5 28h-85" id="bj"/><g id="i"><use transform="matrix(0.05,0,0,0.05,0,0)" xlink:href="#bg"/><use transform="matrix(0.05,0,0,0.05,5,0)" xlink:href="#bi"/><use transform="matrix(0.05,0,0,0.05,17.950000000000003,0)" xlink:href="#bj"/></g><path fill="#333" d="M20-101c0-91 52-143 145-150 126-9 127 168 53 223-23 17-55 32-93 32C57 4 20-33 20-101zm216-33c5-57-18-91-73-90-77 1-110 51-110 125 0 49 23 75 73 75 72-1 104-45 110-110" id="bk"/><g id="j"><use transform="matrix(0.05,0,0,0.05,0,0)" xlink:href="#bi"/><use transform="matrix(0.05,0,0,0.05,12.950000000000001,0)" xlink:href="#bk"/><use transform="matrix(0.05,0,0,0.05,26.950000000000003,0)" xlink:href="#bj"/></g><path fill="#333" d="M62-99C39-31 123 0 170-40s38-139 58-208h34C234-144 253 4 115 4 49 4 18-43 31-112l26-136h34" id="bl"/><path fill="#333" d="M11 0l48-248h34L50-27h125l-5 27H11" id="bm"/><g id="k"><use transform="matrix(0.05,0,0,0.05,0,0)" xlink:href="#bi"/><use transform="matrix(0.05,0,0,0.05,12.950000000000001,0)" xlink:href="#bl"/><use transform="matrix(0.05,0,0,0.05,25.900000000000002,0)" xlink:href="#bm"/><use transform="matrix(0.05,0,0,0.05,35.900000000000006,0)" xlink:href="#bm"/></g><path fill="#333" d="M187 0l-14-72H61L19 0h-37l149-248h38L221 0h-34zm-19-99l-22-123L76-99h92" id="bn"/><path fill="#333" d="M-28 44V31h207v13H-28" id="bo"/><path fill="#333" d="M11 0l48-248h184l-5 28H87l-15 79h140l-5 27H67L50-27h158l-5 27H11" id="bp"/><path fill="#333" d="M222 0l43-216c-8 16-17 34-26 49L143 0h-22L81-216 41 0H11l48-248h42l38 208 116-208h45L252 0h-30" id="bq"/><g id="l"><use transform="matrix(0.05,0,0,0.05,0,0)" xlink:href="#bn"/><use transform="matrix(0.05,0,0,0.05,12,0)" xlink:href="#bl"/><use transform="matrix(0.05,0,0,0.05,24.950000000000003,0)" xlink:href="#bj"/><use transform="matrix(0.05,0,0,0.05,35.550000000000004,0)" xlink:href="#bk"/><use transform="matrix(0.05,0,0,0.05,49.550000000000004,0)" xlink:href="#bo"/><use transform="matrix(0.05,0,0,0.05,59.550000000000004,0)" xlink:href="#bg"/><use transform="matrix(0.05,0,0,0.05,64.55000000000001,0)" xlink:href="#bi"/><use transform="matrix(0.05,0,0,0.05,77.50000000000001,0)" xlink:href="#aT"/><use transform="matrix(0.05,0,0,0.05,90.45000000000002,0)" xlink:href="#aY"/><use transform="matrix(0.05,0,0,0.05,103.40000000000003,0)" xlink:href="#bp"/><use transform="matrix(0.05,0,0,0.05,115.40000000000003,0)" xlink:href="#bq"/><use transform="matrix(0.05,0,0,0.05,130.35000000000002,0)" xlink:href="#bp"/><use transform="matrix(0.05,0,0,0.05,142.35000000000002,0)" xlink:href="#bi"/><use transform="matrix(0.05,0,0,0.05,155.3,0)" xlink:href="#bj"/></g><path fill="#333" d="M87-220l-18 92h140l-5 28H64L45 0H11l48-248h178l-5 28H87" id="br"/><g id="m"><use transform="matrix(0.05,0,0,0.05,0,0)" xlink:href="#br"/><use transform="matrix(0.05,0,0,0.05,10.950000000000001,0)" xlink:href="#bf"/></g><path fill="#333" d="M165-48c-4 18 1 34 23 27l-3 20c-29 8-62 0-52-35h-2C116-14 99 4 63 4 30 4 8-16 8-49c0-68 71-67 138-67 10-26 0-56-31-54-26 1-42 9-47 31l-32-5c8-67 160-71 144 15-5 28-9 54-15 81zM42-50c3 52 80 24 89-6 7-12 7-24 11-38-47 1-103-4-100 44" id="bs"/><g id="n"><use transform="matrix(0.05,0,0,0.05,0,0)" xlink:href="#aT"/><use transform="matrix(0.05,0,0,0.05,12.950000000000001,0)" xlink:href="#aW"/><use transform="matrix(0.05,0,0,0.05,16.900000000000002,0)" xlink:href="#bs"/><use transform="matrix(0.05,0,0,0.05,26.900000000000002,0)" xlink:href="#ba"/><use transform="matrix(0.05,0,0,0.05,35.900000000000006,0)" xlink:href="#ba"/><use transform="matrix(0.05,0,0,0.05,44.900000000000006,0)" xlink:href="#bg"/><use transform="matrix(0.05,0,0,0.05,49.900000000000006,0)" xlink:href="#aX"/></g><path fill="#333" d="M67-158c22-48 132-52 116 29L158 0h-32l25-140c3-38-53-32-70-12C52-117 51-52 38 0H6l36-190h30" id="bt"/><g id="o"><use transform="matrix(0.05,0,0,0.05,0,0)" xlink:href="#aV"/><use transform="matrix(0.05,0,0,0.05,3.95,0)" xlink:href="#bt"/><use transform="matrix(0.05,0,0,0.05,13.949999999999998,0)" xlink:href="#bb"/></g><path fill="#333" d="M248-111c6-24 9-61-24-58-72 9-57 108-77 169h-31l26-142c3-37-50-30-64-10C52-115 50-51 37 0H6l36-190h30c-1 10-6 24-4 32 13-43 101-52 105 5 13-22 29-41 61-41 90 0 28 129 23 194h-31" id="bu"/><g id="p"><use transform="matrix(0.05,0,0,0.05,0,0)" xlink:href="#br"/><use transform="matrix(0.05,0,0,0.05,10.950000000000001,0)" xlink:href="#aV"/><use transform="matrix(0.05,0,0,0.05,14.9,0)" xlink:href="#bd"/><use transform="matrix(0.05,0,0,0.05,20.85,0)" xlink:href="#ba"/><use transform="matrix(0.05,0,0,0.05,29.85,0)" xlink:href="#bb"/><use transform="matrix(0.05,0,0,0.05,34.85,0)" xlink:href="#bi"/><use transform="matrix(0.05,0,0,0.05,47.800000000000004,0)" xlink:href="#bs"/><use transform="matrix(0.05,0,0,0.05,57.800000000000004,0)" xlink:href="#bu"/><use transform="matrix(0.05,0,0,0.05,72.75,0)" xlink:href="#bc"/></g><path fill="#333" d="M89 0H52L20-190h33L74-25l89-165h34" id="bv"/><path fill="#333" d="M44-68c0 29 11 47 38 47 30 0 42-19 51-41l28 9C148-21 126 4 82 4 31 4 10-29 12-85c3-77 74-140 146-93 12 8 15 23 18 40l-31 5c-1-22-13-36-36-36-52 0-65 49-65 101" id="bw"/><path fill="#333" d="M17-49c1-102 45-165 103-212h30C92-210 49-145 49-46 49 4 63 43 85 75H54C30 43 18 2 17-49" id="bx"/><path fill="#333" d="M123-251c66 0 92 69 53 113C138-94 73-75 39-27h128l-5 27H-2c17-92 123-93 159-163 14-28-1-64-36-62-29 2-46 17-54 41l-30-6c13-36 37-61 86-61" id="by"/><path fill="#333" d="M16-82c0-90 25-169 113-169 48 0 68 33 68 82C197-79 170 4 84 4 37 4 16-31 16-82zm30 5c0 32 11 55 40 55 69 0 76-79 80-149 2-32-10-55-39-55-69 0-81 81-81 149" id="bz"/><path fill="#333" d="M98-137C97-35 54 29-4 75h-31C23 23 67-41 67-140c0-50-15-89-37-121h31c24 32 36 73 37 124" id="bA"/><g id="q"><use transform="matrix(0.05,0,0,0.05,0,0)" xlink:href="#bv"/><use transform="matrix(0.05,0,0,0.05,9,0)" xlink:href="#bs"/><use transform="matrix(0.05,0,0,0.05,19,0)" xlink:href="#bd"/><use transform="matrix(0.05,0,0,0.05,24.95,0)" xlink:href="#bw"/><use transform="matrix(0.05,0,0,0.05,33.95,0)" xlink:href="#aU"/><use transform="matrix(0.05,0,0,0.05,43.95,0)" xlink:href="#bs"/><use transform="matrix(0.05,0,0,0.05,53.95,0)" xlink:href="#bd"/><use transform="matrix(0.05,0,0,0.05,59.900000000000006,0)" xlink:href="#bx"/><use transform="matrix(0.05,0,0,0.05,65.85000000000001,0)" xlink:href="#by"/><use transform="matrix(0.05,0,0,0.05,75.85000000000001,0)" xlink:href="#bz"/><use transform="matrix(0.05,0,0,0.05,85.85000000000001,0)" xlink:href="#bA"/></g><g id="r"><use transform="matrix(0.05,0,0,0.05,0,0)" xlink:href="#bt"/><use transform="matrix(0.05,0,0,0.05,10,0)" xlink:href="#aZ"/><use transform="matrix(0.05,0,0,0.05,20,0)" xlink:href="#bb"/></g><path fill="#333" d="M67 3c-93-2-31-127-26-193h32L48-50c-3 39 53 32 70 12 30-34 30-101 43-152h32L157 0h-30c1-10 6-24 4-33-14 20-29 37-64 36" id="bB"/><g id="s"><use transform="matrix(0.05,0,0,0.05,0,0)" xlink:href="#bt"/><use transform="matrix(0.05,0,0,0.05,10,0)" xlink:href="#bB"/><use transform="matrix(0.05,0,0,0.05,20,0)" xlink:href="#aW"/><use transform="matrix(0.05,0,0,0.05,23.95,0)" xlink:href="#aW"/></g><g id="t"><use transform="matrix(0.05,0,0,0.05,0,0)" xlink:href="#bm"/><use transform="matrix(0.05,0,0,0.05,10,0)" xlink:href="#bs"/><use transform="matrix(0.05,0,0,0.05,20,0)" xlink:href="#ba"/><use transform="matrix(0.05,0,0,0.05,29,0)" xlink:href="#bb"/><use transform="matrix(0.05,0,0,0.05,34,0)" xlink:href="#bi"/><use transform="matrix(0.05,0,0,0.05,46.95,0)" xlink:href="#bs"/><use transform="matrix(0.05,0,0,0.05,56.95,0)" xlink:href="#bu"/><use transform="matrix(0.05,0,0,0.05,71.9,0)" xlink:href="#bc"/></g><path fill="#333" d="M67-162c32-53 139-36 121 50C175-51 163 2 97 4 68 4 52-11 42-31 38 6 28 39 22 75H-9l50-265h29c-1 10 0 20-3 28zm89 36c0-26-10-43-35-43-54 0-67 50-69 103-1 29 14 45 42 46 53 0 62-58 62-106" id="bC"/><g id="u"><use transform="matrix(0.05,0,0,0.05,0,0)" xlink:href="#bg"/><use transform="matrix(0.05,0,0,0.05,5,0)" xlink:href="#bt"/><use transform="matrix(0.05,0,0,0.05,15,0)" xlink:href="#ba"/><use transform="matrix(0.05,0,0,0.05,24,0)" xlink:href="#bw"/><use transform="matrix(0.05,0,0,0.05,33,0)" xlink:href="#bd"/><use transform="matrix(0.05,0,0,0.05,38.95,0)" xlink:href="#aV"/><use transform="matrix(0.05,0,0,0.05,42.900000000000006,0)" xlink:href="#bC"/><use transform="matrix(0.05,0,0,0.05,52.900000000000006,0)" xlink:href="#bg"/><use transform="matrix(0.05,0,0,0.05,57.900000000000006,0)" xlink:href="#aX"/></g><g id="v"><use transform="matrix(0.05,0,0,0.05,0,0)" xlink:href="#bg"/><use transform="matrix(0.05,0,0,0.05,5,0)" xlink:href="#bt"/><use transform="matrix(0.05,0,0,0.05,15,0)" xlink:href="#ba"/><use transform="matrix(0.05,0,0,0.05,24,0)" xlink:href="#bw"/><use transform="matrix(0.05,0,0,0.05,33,0)" xlink:href="#bd"/><use transform="matrix(0.05,0,0,0.05,38.95,0)" xlink:href="#aV"/><use transform="matrix(0.05,0,0,0.05,42.900000000000006,0)" xlink:href="#bC"/><use transform="matrix(0.05,0,0,0.05,52.900000000000006,0)" xlink:href="#bb"/><use transform="matrix(0.05,0,0,0.05,57.900000000000006,0)" xlink:href="#aV"/><use transform="matrix(0.05,0,0,0.05,61.85,0)" xlink:href="#aZ"/><use transform="matrix(0.05,0,0,0.05,71.85000000000001,0)" xlink:href="#bt"/></g><g id="w"><use transform="matrix(0.05,0,0,0.05,0,0)" xlink:href="#br"/><use transform="matrix(0.05,0,0,0.05,10.950000000000001,0)" xlink:href="#aV"/><use transform="matrix(0.05,0,0,0.05,14.9,0)" xlink:href="#bd"/><use transform="matrix(0.05,0,0,0.05,20.85,0)" xlink:href="#ba"/><use transform="matrix(0.05,0,0,0.05,29.85,0)" xlink:href="#bb"/><use transform="matrix(0.05,0,0,0.05,34.85,0)" xlink:href="#bi"/><use transform="matrix(0.05,0,0,0.05,47.800000000000004,0)" xlink:href="#bs"/><use transform="matrix(0.05,0,0,0.05,57.800000000000004,0)" xlink:href="#bu"/><use transform="matrix(0.05,0,0,0.05,72.75,0)" xlink:href="#bc"/></g><g id="x"><use transform="matrix(0.05,0,0,0.05,0,0)" xlink:href="#bm"/><use transform="matrix(0.05,0,0,0.05,10,0)" xlink:href="#bs"/><use transform="matrix(0.05,0,0,0.05,20,0)" xlink:href="#ba"/><use transform="matrix(0.05,0,0,0.05,29,0)" xlink:href="#bb"/><use transform="matrix(0.05,0,0,0.05,34,0)" xlink:href="#bi"/><use transform="matrix(0.05,0,0,0.05,46.95,0)" xlink:href="#bs"/><use transform="matrix(0.05,0,0,0.05,56.95,0)" xlink:href="#bu"/><use transform="matrix(0.05,0,0,0.05,71.9,0)" xlink:href="#bc"/></g><g id="y"><use transform="matrix(0.05,0,0,0.05,0,0)" xlink:href="#be"/><use transform="matrix(0.05,0,0,0.05,12,0)" xlink:href="#aU"/><use transform="matrix(0.05,0,0,0.05,22,0)" xlink:href="#aZ"/><use transform="matrix(0.05,0,0,0.05,32,0)" xlink:href="#bt"/><use transform="matrix(0.05,0,0,0.05,42,0)" xlink:href="#bc"/></g><g id="z"><use transform="matrix(0.05,0,0,0.05,0,0)" xlink:href="#bn"/><use transform="matrix(0.05,0,0,0.05,12,0)" xlink:href="#aX"/><use transform="matrix(0.05,0,0,0.05,22,0)" xlink:href="#aX"/><use transform="matrix(0.05,0,0,0.05,32,0)" xlink:href="#bd"/><use transform="matrix(0.05,0,0,0.05,37.95,0)" xlink:href="#bc"/><use transform="matrix(0.05,0,0,0.05,47.95,0)" xlink:href="#ba"/><use transform="matrix(0.05,0,0,0.05,56.95,0)" xlink:href="#ba"/></g><path fill="#333" d="M9 0l6-27h63l36-188-63 39 6-31 66-41h29L110-27h60l-5 27H9" id="bD"/><g id="A"><use transform="matrix(0.05,0,0,0.05,0,0)" xlink:href="#bv"/><use transform="matrix(0.05,0,0,0.05,9,0)" xlink:href="#bs"/><use transform="matrix(0.05,0,0,0.05,19,0)" xlink:href="#bd"/><use transform="matrix(0.05,0,0,0.05,24.95,0)" xlink:href="#bw"/><use transform="matrix(0.05,0,0,0.05,33.95,0)" xlink:href="#aU"/><use transform="matrix(0.05,0,0,0.05,43.95,0)" xlink:href="#bs"/><use transform="matrix(0.05,0,0,0.05,53.95,0)" xlink:href="#bd"/><use transform="matrix(0.05,0,0,0.05,59.900000000000006,0)" xlink:href="#bx"/><use transform="matrix(0.05,0,0,0.05,65.85000000000001,0)" xlink:href="#bD"/><use transform="matrix(0.05,0,0,0.05,75.85000000000001,0)" xlink:href="#bz"/><use transform="matrix(0.05,0,0,0.05,85.85000000000001,0)" xlink:href="#bz"/><use transform="matrix(0.05,0,0,0.05,95.85000000000001,0)" xlink:href="#bA"/></g><g id="B"><use transform="matrix(0.05,0,0,0.05,0,0)" xlink:href="#bg"/><use transform="matrix(0.05,0,0,0.05,5,0)" xlink:href="#bt"/><use transform="matrix(0.05,0,0,0.05,15,0)" xlink:href="#ba"/><use transform="matrix(0.05,0,0,0.05,24,0)" xlink:href="#bw"/><use transform="matrix(0.05,0,0,0.05,33,0)" xlink:href="#bd"/><use transform="matrix(0.05,0,0,0.05,38.95,0)" xlink:href="#aV"/><use transform="matrix(0.05,0,0,0.05,42.900000000000006,0)" xlink:href="#bC"/><use transform="matrix(0.05,0,0,0.05,52.900000000000006,0)" xlink:href="#bb"/><use transform="matrix(0.05,0,0,0.05,57.900000000000006,0)" xlink:href="#aV"/><use transform="matrix(0.05,0,0,0.05,61.85,0)" xlink:href="#aZ"/><use transform="matrix(0.05,0,0,0.05,71.85000000000001,0)" xlink:href="#bt"/><use transform="matrix(0.05,0,0,0.05,81.85000000000001,0)" xlink:href="#bh"/><use transform="matrix(0.05,0,0,0.05,94.80000000000001,0)" xlink:href="#bs"/><use transform="matrix(0.05,0,0,0.05,104.80000000000001,0)" xlink:href="#bb"/><use transform="matrix(0.05,0,0,0.05,109.80000000000001,0)" xlink:href="#bc"/></g><g id="C"><use transform="matrix(0.05,0,0,0.05,0,0)" xlink:href="#aX"/><use transform="matrix(0.05,0,0,0.05,10,0)" xlink:href="#bs"/><use transform="matrix(0.05,0,0,0.05,20,0)" xlink:href="#bb"/><use transform="matrix(0.05,0,0,0.05,25,0)" xlink:href="#bc"/><use transform="matrix(0.05,0,0,0.05,35,0)" xlink:href="#bb"/><use transform="matrix(0.05,0,0,0.05,40,0)" xlink:href="#aV"/><use transform="matrix(0.05,0,0,0.05,43.95,0)" xlink:href="#bu"/><use transform="matrix(0.05,0,0,0.05,58.900000000000006,0)" xlink:href="#bc"/></g><g id="D"><use transform="matrix(0.05,0,0,0.05,0,0)" xlink:href="#bk"/><use transform="matrix(0.05,0,0,0.05,14,0)" xlink:href="#bC"/><use transform="matrix(0.05,0,0,0.05,24,0)" xlink:href="#bc"/><use transform="matrix(0.05,0,0,0.05,34,0)" xlink:href="#bt"/><use transform="matrix(0.05,0,0,0.05,44,0)" xlink:href="#be"/><use transform="matrix(0.05,0,0,0.05,56,0)" xlink:href="#aW"/><use transform="matrix(0.05,0,0,0.05,59.95,0)" xlink:href="#bs"/><use transform="matrix(0.05,0,0,0.05,69.95,0)" xlink:href="#bw"/><use transform="matrix(0.05,0,0,0.05,78.95,0)" xlink:href="#bc"/></g><path fill="#333" d="M194-120c59 52 2 134-86 124-53-6-90-18-98-63l31-7c8 30 29 43 70 43 46 0 84-17 71-62-32-43-135-20-137-98-3-89 178-90 191-16l-30 9c-8-48-127-53-127 5 0 53 81 35 115 65" id="bE"/><g id="E"><use transform="matrix(0.05,0,0,0.05,0,0)" xlink:href="#bE"/><use transform="matrix(0.05,0,0,0.05,12,0)" xlink:href="#bb"/><use transform="matrix(0.05,0,0,0.05,17,0)" xlink:href="#bs"/><use transform="matrix(0.05,0,0,0.05,27,0)" xlink:href="#bb"/><use transform="matrix(0.05,0,0,0.05,32,0)" xlink:href="#bB"/><use transform="matrix(0.05,0,0,0.05,42,0)" xlink:href="#ba"/></g><g id="F"><use transform="matrix(0.05,0,0,0.05,0,0)" xlink:href="#bv"/><use transform="matrix(0.05,0,0,0.05,9,0)" xlink:href="#bs"/><use transform="matrix(0.05,0,0,0.05,19,0)" xlink:href="#bd"/><use transform="matrix(0.05,0,0,0.05,24.95,0)" xlink:href="#bw"/><use transform="matrix(0.05,0,0,0.05,33.95,0)" xlink:href="#aU"/><use transform="matrix(0.05,0,0,0.05,43.95,0)" xlink:href="#bs"/><use transform="matrix(0.05,0,0,0.05,53.95,0)" xlink:href="#bd"/><use transform="matrix(0.05,0,0,0.05,59.900000000000006,0)" xlink:href="#bx"/><use transform="matrix(0.05,0,0,0.05,65.85000000000001,0)" xlink:href="#bD"/><use transform="matrix(0.05,0,0,0.05,75.85000000000001,0)" xlink:href="#bz"/><use transform="matrix(0.05,0,0,0.05,85.85000000000001,0)" xlink:href="#bA"/></g><path fill="#333" d="M188 0h-37l-8-164L71 0H34L18-190h31l8 164 75-164h34l8 164 74-164h31" id="bF"/><g id="G"><use transform="matrix(0.05,0,0,0.05,0,0)" xlink:href="#bi"/><use transform="matrix(0.05,0,0,0.05,12.950000000000001,0)" xlink:href="#bc"/><use transform="matrix(0.05,0,0,0.05,22.950000000000003,0)" xlink:href="#bF"/><use transform="matrix(0.05,0,0,0.05,35.900000000000006,0)" xlink:href="#ba"/></g><g id="H"><use transform="matrix(0.05,0,0,0.05,0,0)" xlink:href="#bi"/><use transform="matrix(0.05,0,0,0.05,12.950000000000001,0)" xlink:href="#bs"/><use transform="matrix(0.05,0,0,0.05,22.950000000000003,0)" xlink:href="#bu"/><use transform="matrix(0.05,0,0,0.05,37.900000000000006,0)" xlink:href="#bc"/></g><g id="I"><use transform="matrix(0.05,0,0,0.05,0,0)" xlink:href="#bg"/><use transform="matrix(0.05,0,0,0.05,5,0)" xlink:href="#ba"/><use transform="matrix(0.05,0,0,0.05,14,0)" xlink:href="#ba"/><use transform="matrix(0.05,0,0,0.05,23,0)" xlink:href="#bB"/><use transform="matrix(0.05,0,0,0.05,33,0)" xlink:href="#bc"/><use transform="matrix(0.05,0,0,0.05,43,0)" xlink:href="#bh"/><use transform="matrix(0.05,0,0,0.05,55.95,0)" xlink:href="#bs"/><use transform="matrix(0.05,0,0,0.05,65.95,0)" xlink:href="#bb"/><use transform="matrix(0.05,0,0,0.05,70.95,0)" xlink:href="#bc"/></g><g id="J"><use transform="matrix(0.05,0,0,0.05,0,0)" xlink:href="#be"/><use transform="matrix(0.05,0,0,0.05,12,0)" xlink:href="#aV"/><use transform="matrix(0.05,0,0,0.05,15.949999999999998,0)" xlink:href="#bw"/><use transform="matrix(0.05,0,0,0.05,24.95,0)" xlink:href="#be"/><use transform="matrix(0.05,0,0,0.05,36.95,0)" xlink:href="#bs"/><use transform="matrix(0.05,0,0,0.05,46.95,0)" xlink:href="#bb"/><use transform="matrix(0.05,0,0,0.05,51.95,0)" xlink:href="#aU"/></g><g id="K"><use transform="matrix(0.05,0,0,0.05,0,0)" xlink:href="#bv"/><use transform="matrix(0.05,0,0,0.05,9,0)" xlink:href="#bs"/><use transform="matrix(0.05,0,0,0.05,19,0)" xlink:href="#bd"/><use transform="matrix(0.05,0,0,0.05,24.95,0)" xlink:href="#bw"/><use transform="matrix(0.05,0,0,0.05,33.95,0)" xlink:href="#aU"/><use transform="matrix(0.05,0,0,0.05,43.95,0)" xlink:href="#bs"/><use transform="matrix(0.05,0,0,0.05,53.95,0)" xlink:href="#bd"/><use transform="matrix(0.05,0,0,0.05,59.900000000000006,0)" xlink:href="#bx"/><use transform="matrix(0.05,0,0,0.05,65.85000000000001,0)" xlink:href="#bD"/><use transform="matrix(0.05,0,0,0.05,75.85000000000001,0)" xlink:href="#bz"/><use transform="matrix(0.05,0,0,0.05,85.85000000000001,0)" xlink:href="#bz"/><use transform="matrix(0.05,0,0,0.05,95.85000000000001,0)" xlink:href="#bA"/></g><g id="L"><use transform="matrix(0.05,0,0,0.05,0,0)" xlink:href="#aT"/><use transform="matrix(0.05,0,0,0.05,12.950000000000001,0)" xlink:href="#aZ"/><use transform="matrix(0.05,0,0,0.05,22.950000000000003,0)" xlink:href="#bt"/><use transform="matrix(0.05,0,0,0.05,32.95,0)" xlink:href="#bb"/><use transform="matrix(0.05,0,0,0.05,37.95,0)" xlink:href="#bc"/><use transform="matrix(0.05,0,0,0.05,47.95,0)" xlink:href="#bt"/><use transform="matrix(0.05,0,0,0.05,57.95,0)" xlink:href="#bb"/></g><path fill="#333" d="M151-85c6-55-69-56-94-29H26l34-134h141l-5 27H84l-20 79c41-34 127-11 121 53C199 13 30 38 8-54l29-8C52 0 159-13 151-85" id="bG"/><g id="M"><use transform="matrix(0.05,0,0,0.05,0,0)" xlink:href="#bv"/><use transform="matrix(0.05,0,0,0.05,9,0)" xlink:href="#bs"/><use transform="matrix(0.05,0,0,0.05,19,0)" xlink:href="#bd"/><use transform="matrix(0.05,0,0,0.05,24.95,0)" xlink:href="#bw"/><use transform="matrix(0.05,0,0,0.05,33.95,0)" xlink:href="#aU"/><use transform="matrix(0.05,0,0,0.05,43.95,0)" xlink:href="#bs"/><use transform="matrix(0.05,0,0,0.05,53.95,0)" xlink:href="#bd"/><use transform="matrix(0.05,0,0,0.05,59.900000000000006,0)" xlink:href="#bx"/><use transform="matrix(0.05,0,0,0.05,65.85000000000001,0)" xlink:href="#bG"/><use transform="matrix(0.05,0,0,0.05,75.85000000000001,0)" xlink:href="#bz"/><use transform="matrix(0.05,0,0,0.05,85.85000000000001,0)" xlink:href="#bz"/><use transform="matrix(0.05,0,0,0.05,95.85000000000001,0)" xlink:href="#bA"/></g><g id="N"><use transform="matrix(0.05,0,0,0.05,0,0)" xlink:href="#bn"/><use transform="matrix(0.05,0,0,0.05,12,0)" xlink:href="#aX"/><use transform="matrix(0.05,0,0,0.05,22,0)" xlink:href="#bu"/><use transform="matrix(0.05,0,0,0.05,36.95,0)" xlink:href="#aV"/><use transform="matrix(0.05,0,0,0.05,40.900000000000006,0)" xlink:href="#bt"/></g><g id="O"><use transform="matrix(0.05,0,0,0.05,0,0)" xlink:href="#be"/><use transform="matrix(0.05,0,0,0.05,12,0)" xlink:href="#bs"/><use transform="matrix(0.05,0,0,0.05,22,0)" xlink:href="#ba"/><use transform="matrix(0.05,0,0,0.05,31,0)" xlink:href="#ba"/><use transform="matrix(0.05,0,0,0.05,40,0)" xlink:href="#bF"/><use transform="matrix(0.05,0,0,0.05,52.95,0)" xlink:href="#aZ"/><use transform="matrix(0.05,0,0,0.05,62.95,0)" xlink:href="#bd"/><use transform="matrix(0.05,0,0,0.05,68.9,0)" xlink:href="#aX"/></g><g id="P"><use transform="matrix(0.05,0,0,0.05,0,0)" xlink:href="#bh"/><use transform="matrix(0.05,0,0,0.05,12.950000000000001,0)" xlink:href="#bc"/><use transform="matrix(0.05,0,0,0.05,22.950000000000003,0)" xlink:href="#ba"/><use transform="matrix(0.05,0,0,0.05,31.950000000000003,0)" xlink:href="#bw"/><use transform="matrix(0.05,0,0,0.05,40.95,0)" xlink:href="#bd"/><use transform="matrix(0.05,0,0,0.05,46.900000000000006,0)" xlink:href="#aV"/><use transform="matrix(0.05,0,0,0.05,50.85000000000001,0)" xlink:href="#bC"/><use transform="matrix(0.05,0,0,0.05,60.85,0)" xlink:href="#bb"/><use transform="matrix(0.05,0,0,0.05,65.85000000000001,0)" xlink:href="#aV"/><use transform="matrix(0.05,0,0,0.05,69.80000000000001,0)" xlink:href="#aZ"/><use transform="matrix(0.05,0,0,0.05,79.80000000000001,0)" xlink:href="#bt"/></g><g id="Q"><use transform="matrix(0.05,0,0,0.05,0,0)" xlink:href="#bv"/><use transform="matrix(0.05,0,0,0.05,9,0)" xlink:href="#bs"/><use transform="matrix(0.05,0,0,0.05,19,0)" xlink:href="#bd"/><use transform="matrix(0.05,0,0,0.05,24.95,0)" xlink:href="#bw"/><use transform="matrix(0.05,0,0,0.05,33.95,0)" xlink:href="#aU"/><use transform="matrix(0.05,0,0,0.05,43.95,0)" xlink:href="#bs"/><use transform="matrix(0.05,0,0,0.05,53.95,0)" xlink:href="#bd"/><use transform="matrix(0.05,0,0,0.05,59.900000000000006,0)" xlink:href="#bx"/><use transform="matrix(0.05,0,0,0.05,65.85000000000001,0)" xlink:href="#bG"/><use transform="matrix(0.05,0,0,0.05,75.85000000000001,0)" xlink:href="#bz"/><use transform="matrix(0.05,0,0,0.05,85.85000000000001,0)" xlink:href="#bA"/></g><g id="R"><use transform="matrix(0.05,0,0,0.05,0,0)" xlink:href="#bg"/><use transform="matrix(0.05,0,0,0.05,5,0)" xlink:href="#ba"/><use transform="matrix(0.05,0,0,0.05,14,0)" xlink:href="#bn"/><use transform="matrix(0.05,0,0,0.05,26,0)" xlink:href="#bw"/><use transform="matrix(0.05,0,0,0.05,35,0)" xlink:href="#bb"/><use transform="matrix(0.05,0,0,0.05,40,0)" xlink:href="#aV"/><use transform="matrix(0.05,0,0,0.05,43.95,0)" xlink:href="#bv"/><use transform="matrix(0.05,0,0,0.05,52.95,0)" xlink:href="#bc"/></g><path fill="#333" d="M68-162c25-46 127-43 121 31C183-60 169 1 98 4 69 5 53-11 43-31L36 0H5l52-261h31zm88 36c2-27-9-43-34-43-55 0-70 51-70 103 0 29 15 45 43 46 52 0 58-58 61-106" id="bH"/><g id="S"><use transform="matrix(0.05,0,0,0.05,0,0)" xlink:href="#bH"/><use transform="matrix(0.05,0,0,0.05,10,0)" xlink:href="#aZ"/><use transform="matrix(0.05,0,0,0.05,20,0)" xlink:href="#aZ"/><use transform="matrix(0.05,0,0,0.05,30,0)" xlink:href="#aW"/><use transform="matrix(0.05,0,0,0.05,33.95,0)" xlink:href="#bc"/><use transform="matrix(0.05,0,0,0.05,43.95,0)" xlink:href="#bs"/><use transform="matrix(0.05,0,0,0.05,53.95,0)" xlink:href="#bt"/></g><path fill="#333" d="M76-167L44 0H12l33-167H18l4-23h27c3-47 25-81 82-69l-4 24c-35-8-44 15-46 45h37l-5 23H76" id="bI"/><g id="T"><use transform="matrix(0.05,0,0,0.05,0,0)" xlink:href="#aX"/><use transform="matrix(0.05,0,0,0.05,10,0)" xlink:href="#bc"/><use transform="matrix(0.05,0,0,0.05,20,0)" xlink:href="#bI"/><use transform="matrix(0.05,0,0,0.05,25,0)" xlink:href="#bs"/><use transform="matrix(0.05,0,0,0.05,35,0)" xlink:href="#bB"/><use transform="matrix(0.05,0,0,0.05,45,0)" xlink:href="#aW"/><use transform="matrix(0.05,0,0,0.05,48.95,0)" xlink:href="#bb"/></g><g id="U"><use transform="matrix(0.05,0,0,0.05,0,0)" xlink:href="#bb"/><use transform="matrix(0.05,0,0,0.05,5,0)" xlink:href="#bd"/><use transform="matrix(0.05,0,0,0.05,10.95,0)" xlink:href="#bB"/><use transform="matrix(0.05,0,0,0.05,20.95,0)" xlink:href="#bc"/></g><g id="V"><use transform="matrix(0.05,0,0,0.05,0,0)" xlink:href="#bj"/><use transform="matrix(0.05,0,0,0.05,9.3,0)" xlink:href="#bc"/><use transform="matrix(0.05,0,0,0.05,19.3,0)" xlink:href="#bs"/><use transform="matrix(0.05,0,0,0.05,29.3,0)" xlink:href="#bw"/><use transform="matrix(0.05,0,0,0.05,38.3,0)" xlink:href="#aU"/><use transform="matrix(0.05,0,0,0.05,48.3,0)" xlink:href="#bc"/><use transform="matrix(0.05,0,0,0.05,58.29999999999999,0)" xlink:href="#bd"/></g><g id="W"><use transform="matrix(0.05,0,0,0.05,0,0)" xlink:href="#aT"/><use transform="matrix(0.05,0,0,0.05,12.950000000000001,0)" xlink:href="#aW"/><use transform="matrix(0.05,0,0,0.05,16.900000000000002,0)" xlink:href="#bs"/><use transform="matrix(0.05,0,0,0.05,26.900000000000002,0)" xlink:href="#ba"/><use transform="matrix(0.05,0,0,0.05,35.900000000000006,0)" xlink:href="#ba"/><use transform="matrix(0.05,0,0,0.05,44.900000000000006,0)" xlink:href="#bj"/><use transform="matrix(0.05,0,0,0.05,54.20000000000002,0)" xlink:href="#bc"/><use transform="matrix(0.05,0,0,0.05,64.20000000000002,0)" xlink:href="#bs"/><use transform="matrix(0.05,0,0,0.05,74.20000000000002,0)" xlink:href="#bw"/><use transform="matrix(0.05,0,0,0.05,83.20000000000002,0)" xlink:href="#aU"/><use transform="matrix(0.05,0,0,0.05,93.20000000000002,0)" xlink:href="#bc"/><use transform="matrix(0.05,0,0,0.05,103.2,0)" xlink:href="#bd"/></g><path fill="#333" d="M58-38C53-5 46 26 28 46H7C19 32 27 18 32 0H17l7-38h34" id="bJ"/><g id="X"><use transform="matrix(0.05,0,0,0.05,0,0)" xlink:href="#be"/><use transform="matrix(0.05,0,0,0.05,12,0)" xlink:href="#bf"/><use transform="matrix(0.05,0,0,0.05,24,0)" xlink:href="#bJ"/><use transform="matrix(0.05,0,0,0.05,29,0)" xlink:href="#br"/><use transform="matrix(0.05,0,0,0.05,39.95,0)" xlink:href="#bf"/></g><g id="Y"><use transform="matrix(0.05,0,0,0.05,0,0)" xlink:href="#aV"/><use transform="matrix(0.05,0,0,0.05,3.95,0)" xlink:href="#bt"/><use transform="matrix(0.05,0,0,0.05,13.949999999999998,0)" xlink:href="#bb"/></g><g id="Z"><use transform="matrix(0.05,0,0,0.05,0,0)" xlink:href="#bj"/><use transform="matrix(0.05,0,0,0.05,9.3,0)" xlink:href="#bc"/><use transform="matrix(0.05,0,0,0.05,19.3,0)" xlink:href="#bs"/><use transform="matrix(0.05,0,0,0.05,29.3,0)" xlink:href="#bw"/><use transform="matrix(0.05,0,0,0.05,38.3,0)" xlink:href="#aU"/><use transform="matrix(0.05,0,0,0.05,48.3,0)" xlink:href="#bc"/><use transform="matrix(0.05,0,0,0.05,58.29999999999999,0)" xlink:href="#bd"/><use transform="matrix(0.05,0,0,0.05,64.25,0)" xlink:href="#bg"/><use transform="matrix(0.05,0,0,0.05,69.25,0)" xlink:href="#aX"/></g><g id="aa"><use transform="matrix(0.05,0,0,0.05,0,0)" xlink:href="#aT"/><use transform="matrix(0.05,0,0,0.05,12.950000000000001,0)" xlink:href="#aW"/><use transform="matrix(0.05,0,0,0.05,16.900000000000002,0)" xlink:href="#bs"/><use transform="matrix(0.05,0,0,0.05,26.900000000000002,0)" xlink:href="#ba"/><use transform="matrix(0.05,0,0,0.05,35.900000000000006,0)" xlink:href="#ba"/></g><g id="ab"><use transform="matrix(0.05,0,0,0.05,0,0)" xlink:href="#be"/><use transform="matrix(0.05,0,0,0.05,12,0)" xlink:href="#bf"/></g><g id="ac"><use transform="matrix(0.05,0,0,0.05,0,0)" xlink:href="#bg"/><use transform="matrix(0.05,0,0,0.05,5,0)" xlink:href="#bh"/></g><g id="ad"><use transform="matrix(0.05,0,0,0.05,0,0)" xlink:href="#aT"/><use transform="matrix(0.05,0,0,0.05,12.950000000000001,0)" xlink:href="#aW"/><use transform="matrix(0.05,0,0,0.05,16.900000000000002,0)" xlink:href="#bs"/><use transform="matrix(0.05,0,0,0.05,26.900000000000002,0)" xlink:href="#ba"/><use transform="matrix(0.05,0,0,0.05,35.900000000000006,0)" xlink:href="#ba"/><use transform="matrix(0.05,0,0,0.05,44.900000000000006,0)" xlink:href="#bi"/><use transform="matrix(0.05,0,0,0.05,57.85,0)" xlink:href="#bs"/><use transform="matrix(0.05,0,0,0.05,67.85000000000001,0)" xlink:href="#bu"/><use transform="matrix(0.05,0,0,0.05,82.80000000000001,0)" xlink:href="#bc"/></g><g id="ae"><use transform="matrix(0.05,0,0,0.05,0,0)" xlink:href="#bk"/><use transform="matrix(0.05,0,0,0.05,14,0)" xlink:href="#bC"/><use transform="matrix(0.05,0,0,0.05,24,0)" xlink:href="#bc"/><use transform="matrix(0.05,0,0,0.05,34,0)" xlink:href="#bt"/><use transform="matrix(0.05,0,0,0.05,44,0)" xlink:href="#bh"/><use transform="matrix(0.05,0,0,0.05,56.95,0)" xlink:href="#bs"/><use transform="matrix(0.05,0,0,0.05,66.95,0)" xlink:href="#bb"/><use transform="matrix(0.05,0,0,0.05,71.95,0)" xlink:href="#bc"/></g><g id="af"><use transform="matrix(0.05,0,0,0.05,0,0)" xlink:href="#br"/><use transform="matrix(0.05,0,0,0.05,10.950000000000001,0)" xlink:href="#aZ"/><use transform="matrix(0.05,0,0,0.05,20.950000000000003,0)" xlink:href="#aZ"/><use transform="matrix(0.05,0,0,0.05,30.950000000000003,0)" xlink:href="#aX"/><use transform="matrix(0.05,0,0,0.05,40.95,0)" xlink:href="#ba"/></g><g id="ag"><use transform="matrix(0.05,0,0,0.05,0,0)" xlink:href="#bi"/><use transform="matrix(0.05,0,0,0.05,12.950000000000001,0)" xlink:href="#bl"/><use transform="matrix(0.05,0,0,0.05,25.900000000000002,0)" xlink:href="#bm"/><use transform="matrix(0.05,0,0,0.05,35.900000000000006,0)" xlink:href="#bm"/></g><g id="ah"><use transform="matrix(0.05,0,0,0.05,0,0)" xlink:href="#bi"/><use transform="matrix(0.05,0,0,0.05,12.950000000000001,0)" xlink:href="#bs"/><use transform="matrix(0.05,0,0,0.05,22.950000000000003,0)" xlink:href="#bu"/><use transform="matrix(0.05,0,0,0.05,37.900000000000006,0)" xlink:href="#bc"/></g><g id="ai"><use transform="matrix(0.05,0,0,0.05,0,0)" xlink:href="#aZ"/><use transform="matrix(0.05,0,0,0.05,10,0)" xlink:href="#bI"/><use transform="matrix(0.05,0,0,0.05,15,0)" xlink:href="#bI"/><use transform="matrix(0.05,0,0,0.05,20,0)" xlink:href="#bc"/><use transform="matrix(0.05,0,0,0.05,30,0)" xlink:href="#bd"/><use transform="matrix(0.05,0,0,0.05,35.95,0)" xlink:href="#bh"/><use transform="matrix(0.05,0,0,0.05,48.900000000000006,0)" xlink:href="#bs"/><use transform="matrix(0.05,0,0,0.05,58.900000000000006,0)" xlink:href="#bb"/><use transform="matrix(0.05,0,0,0.05,63.900000000000006,0)" xlink:href="#bc"/></g><g id="aj"><use transform="matrix(0.05,0,0,0.05,0,0)" xlink:href="#be"/><use transform="matrix(0.05,0,0,0.05,12,0)" xlink:href="#aV"/><use transform="matrix(0.05,0,0,0.05,15.949999999999998,0)" xlink:href="#bw"/><use transform="matrix(0.05,0,0,0.05,24.95,0)" xlink:href="#be"/><use transform="matrix(0.05,0,0,0.05,36.95,0)" xlink:href="#bs"/><use transform="matrix(0.05,0,0,0.05,46.95,0)" xlink:href="#bb"/><use transform="matrix(0.05,0,0,0.05,51.95,0)" xlink:href="#aU"/></g><g id="ak"><use transform="matrix(0.05,0,0,0.05,0,0)" xlink:href="#bv"/><use transform="matrix(0.05,0,0,0.05,9,0)" xlink:href="#bs"/><use transform="matrix(0.05,0,0,0.05,19,0)" xlink:href="#bd"/><use transform="matrix(0.05,0,0,0.05,24.95,0)" xlink:href="#bw"/><use transform="matrix(0.05,0,0,0.05,33.95,0)" xlink:href="#aU"/><use transform="matrix(0.05,0,0,0.05,43.95,0)" xlink:href="#bs"/><use transform="matrix(0.05,0,0,0.05,53.95,0)" xlink:href="#bd"/><use transform="matrix(0.05,0,0,0.05,59.900000000000006,0)" xlink:href="#bx"/><use transform="matrix(0.05,0,0,0.05,65.85000000000001,0)" xlink:href="#bD"/><use transform="matrix(0.05,0,0,0.05,75.85000000000001,0)" xlink:href="#bz"/><use transform="matrix(0.05,0,0,0.05,85.85000000000001,0)" xlink:href="#bz"/><use transform="matrix(0.05,0,0,0.05,95.85000000000001,0)" xlink:href="#bA"/></g><g id="al"><use transform="matrix(0.05,0,0,0.05,0,0)" xlink:href="#bh"/><use transform="matrix(0.05,0,0,0.05,12.950000000000001,0)" xlink:href="#bc"/><use transform="matrix(0.05,0,0,0.05,22.950000000000003,0)" xlink:href="#ba"/><use transform="matrix(0.05,0,0,0.05,31.950000000000003,0)" xlink:href="#bw"/><use transform="matrix(0.05,0,0,0.05,40.95,0)" xlink:href="#bd"/><use transform="matrix(0.05,0,0,0.05,46.900000000000006,0)" xlink:href="#aV"/><use transform="matrix(0.05,0,0,0.05,50.85000000000001,0)" xlink:href="#bC"/><use transform="matrix(0.05,0,0,0.05,60.85,0)" xlink:href="#bb"/><use transform="matrix(0.05,0,0,0.05,65.85000000000001,0)" xlink:href="#aV"/><use transform="matrix(0.05,0,0,0.05,69.80000000000001,0)" xlink:href="#aZ"/><use transform="matrix(0.05,0,0,0.05,79.80000000000001,0)" xlink:href="#bt"/></g><g id="am"><use transform="matrix(0.05,0,0,0.05,0,0)" xlink:href="#bv"/><use transform="matrix(0.05,0,0,0.05,9,0)" xlink:href="#bs"/><use transform="matrix(0.05,0,0,0.05,19,0)" xlink:href="#bd"/><use transform="matrix(0.05,0,0,0.05,24.95,0)" xlink:href="#bw"/><use transform="matrix(0.05,0,0,0.05,33.95,0)" xlink:href="#aU"/><use transform="matrix(0.05,0,0,0.05,43.95,0)" xlink:href="#bs"/><use transform="matrix(0.05,0,0,0.05,53.95,0)" xlink:href="#bd"/><use transform="matrix(0.05,0,0,0.05,59.900000000000006,0)" xlink:href="#bx"/><use transform="matrix(0.05,0,0,0.05,65.85000000000001,0)" xlink:href="#bG"/><use transform="matrix(0.05,0,0,0.05,75.85000000000001,0)" xlink:href="#bz"/><use transform="matrix(0.05,0,0,0.05,85.85000000000001,0)" xlink:href="#bz"/><use transform="matrix(0.05,0,0,0.05,95.85000000000001,0)" xlink:href="#bA"/></g><g id="an"><use transform="matrix(0.05,0,0,0.05,0,0)" xlink:href="#bn"/><use transform="matrix(0.05,0,0,0.05,12,0)" xlink:href="#bw"/><use transform="matrix(0.05,0,0,0.05,21,0)" xlink:href="#bb"/><use transform="matrix(0.05,0,0,0.05,26,0)" xlink:href="#aV"/><use transform="matrix(0.05,0,0,0.05,29.950000000000003,0)" xlink:href="#bv"/><use transform="matrix(0.05,0,0,0.05,38.95,0)" xlink:href="#aV"/><use transform="matrix(0.05,0,0,0.05,42.900000000000006,0)" xlink:href="#bb"/><use transform="matrix(0.05,0,0,0.05,47.900000000000006,0)" xlink:href="#aV"/><use transform="matrix(0.05,0,0,0.05,51.85,0)" xlink:href="#bc"/><use transform="matrix(0.05,0,0,0.05,61.85,0)" xlink:href="#ba"/></g><path fill="#333" d="M198-190L69 30C53 58 25 83-20 72c4-11-1-27 19-22 33-1 43-29 59-52L20-190h32L79-34l84-156h35" id="bK"/><g id="ao"><use transform="matrix(0.05,0,0,0.05,0,0)" xlink:href="#bs"/><use transform="matrix(0.05,0,0,0.05,10,0)" xlink:href="#bw"/><use transform="matrix(0.05,0,0,0.05,19,0)" xlink:href="#bb"/><use transform="matrix(0.05,0,0,0.05,24,0)" xlink:href="#aV"/><use transform="matrix(0.05,0,0,0.05,27.950000000000003,0)" xlink:href="#bv"/><use transform="matrix(0.05,0,0,0.05,36.95,0)" xlink:href="#aV"/><use transform="matrix(0.05,0,0,0.05,40.900000000000006,0)" xlink:href="#bb"/><use transform="matrix(0.05,0,0,0.05,45.900000000000006,0)" xlink:href="#bK"/><use transform="matrix(0.05,0,0,0.05,54.900000000000006,0)" xlink:href="#bh"/><use transform="matrix(0.05,0,0,0.05,67.85000000000001,0)" xlink:href="#bs"/><use transform="matrix(0.05,0,0,0.05,77.85000000000001,0)" xlink:href="#bb"/><use transform="matrix(0.05,0,0,0.05,82.85000000000001,0)" xlink:href="#bc"/></g><g id="ap"><use transform="matrix(0.05,0,0,0.05,0,0)" xlink:href="#aT"/><use transform="matrix(0.05,0,0,0.05,12.950000000000001,0)" xlink:href="#aW"/><use transform="matrix(0.05,0,0,0.05,16.900000000000002,0)" xlink:href="#bs"/><use transform="matrix(0.05,0,0,0.05,26.900000000000002,0)" xlink:href="#ba"/><use transform="matrix(0.05,0,0,0.05,35.900000000000006,0)" xlink:href="#ba"/><use transform="matrix(0.05,0,0,0.05,44.900000000000006,0)" xlink:href="#bn"/><use transform="matrix(0.05,0,0,0.05,56.900000000000006,0)" xlink:href="#bw"/><use transform="matrix(0.05,0,0,0.05,65.9,0)" xlink:href="#bb"/><use transform="matrix(0.05,0,0,0.05,70.9,0)" xlink:href="#aV"/><use transform="matrix(0.05,0,0,0.05,74.85000000000001,0)" xlink:href="#bv"/><use transform="matrix(0.05,0,0,0.05,83.85000000000001,0)" xlink:href="#aV"/><use transform="matrix(0.05,0,0,0.05,87.80000000000001,0)" xlink:href="#bb"/><use transform="matrix(0.05,0,0,0.05,92.80000000000001,0)" xlink:href="#aV"/><use transform="matrix(0.05,0,0,0.05,96.75000000000001,0)" xlink:href="#bc"/><use transform="matrix(0.05,0,0,0.05,106.75,0)" xlink:href="#ba"/></g><g id="aq"><use transform="matrix(0.05,0,0,0.05,0,0)" xlink:href="#be"/><use transform="matrix(0.05,0,0,0.05,12,0)" xlink:href="#bf"/><use transform="matrix(0.05,0,0,0.05,24,0)" xlink:href="#bJ"/><use transform="matrix(0.05,0,0,0.05,29,0)" xlink:href="#br"/><use transform="matrix(0.05,0,0,0.05,39.95,0)" xlink:href="#bf"/></g><g id="ar"><use transform="matrix(0.05,0,0,0.05,0,0)" xlink:href="#bn"/><use transform="matrix(0.05,0,0,0.05,12,0)" xlink:href="#bw"/><use transform="matrix(0.05,0,0,0.05,21,0)" xlink:href="#bb"/><use transform="matrix(0.05,0,0,0.05,26,0)" xlink:href="#aV"/><use transform="matrix(0.05,0,0,0.05,29.950000000000003,0)" xlink:href="#bv"/><use transform="matrix(0.05,0,0,0.05,38.95,0)" xlink:href="#aV"/><use transform="matrix(0.05,0,0,0.05,42.900000000000006,0)" xlink:href="#bb"/><use transform="matrix(0.05,0,0,0.05,47.900000000000006,0)" xlink:href="#bK"/><use transform="matrix(0.05,0,0,0.05,56.900000000000006,0)" xlink:href="#bg"/><use transform="matrix(0.05,0,0,0.05,61.900000000000006,0)" xlink:href="#aX"/></g><g id="as"><use transform="matrix(0.05,0,0,0.05,0,0)" xlink:href="#aT"/><use transform="matrix(0.05,0,0,0.05,12.950000000000001,0)" xlink:href="#aW"/><use transform="matrix(0.05,0,0,0.05,16.900000000000002,0)" xlink:href="#bs"/><use transform="matrix(0.05,0,0,0.05,26.900000000000002,0)" xlink:href="#ba"/><use transform="matrix(0.05,0,0,0.05,35.900000000000006,0)" xlink:href="#ba"/><use transform="matrix(0.05,0,0,0.05,44.900000000000006,0)" xlink:href="#br"/><use transform="matrix(0.05,0,0,0.05,55.85,0)" xlink:href="#aZ"/><use transform="matrix(0.05,0,0,0.05,65.85000000000001,0)" xlink:href="#aZ"/><use transform="matrix(0.05,0,0,0.05,75.85000000000001,0)" xlink:href="#aX"/></g><g id="at"><use transform="matrix(0.05,0,0,0.05,0,0)" xlink:href="#br"/><use transform="matrix(0.05,0,0,0.05,10.950000000000001,0)" xlink:href="#aZ"/><use transform="matrix(0.05,0,0,0.05,20.950000000000003,0)" xlink:href="#aZ"/><use transform="matrix(0.05,0,0,0.05,30.950000000000003,0)" xlink:href="#aX"/><use transform="matrix(0.05,0,0,0.05,40.95,0)" xlink:href="#bg"/><use transform="matrix(0.05,0,0,0.05,45.95,0)" xlink:href="#aX"/></g></defs></g></svg>